<svg xmlns="http://www.w3.org/2000/svg" width="127.8" height="48" viewBox="0 0 127.8 48">
  <path id="パス_12522" data-name="パス 12522" d="M-22.625-18.05a1.485,1.485,0,0,0-1.4-1.5c-1.3-.15-3.25-.05-4.6-.05-4.35,0-8.65.05-13,.2.15-3.25.2-6.5.3-9.75,1.85,0,3.75-.05,5.6-.05,1.45,0,2.9.1,4.35.1a1.409,1.409,0,0,0,1.45-1.4,1.444,1.444,0,0,0-1.35-1.5,45.78,45.78,0,0,0-5.25-.1c-1.6,0-3.15,0-4.75.05.05-1.45.05-2.85.05-4.3a27.107,27.107,0,0,0-.05-2.85,1.451,1.451,0,0,0-1.5-1.4,1.462,1.462,0,0,0-1.45,1.5c0,2.35.05,4.75,0,7.1-2.4.1-4.85.2-7.25.4a46.069,46.069,0,0,1,1.6-6.4,1.776,1.776,0,0,0,.1-.5,1.5,1.5,0,0,0-1.5-1.5,1.468,1.468,0,0,0-1.35.9c-.8,1.65-3.35,14.4-3.35,16.35a1.468,1.468,0,0,0,1.35,1.45,1.467,1.467,0,0,0,1.6-1.35l.25-1.8c.2-1.4.45-2.75.7-4.1a57.837,57.837,0,0,1,7.8-.5c-.1,3.25-.15,6.5-.3,9.75-4.1.15-8.15.35-12.25.7a44.06,44.06,0,0,0-6.35.7,1.466,1.466,0,0,0-1.15,1.5,1.451,1.451,0,0,0,1.45,1.45c.1,0,.15-.05.25-.05,1.3-.25,2.7-.35,4-.5,2.95-.3,5.95-.45,8.95-.6a78.87,78.87,0,0,1-7.85,14.05c-.7.95-1.5,1.85-2.2,2.8a1.4,1.4,0,0,0-.35.95,1.451,1.451,0,0,0,1.45,1.45,1.628,1.628,0,0,0,1.15-.5A17.821,17.821,0,0,0-55.425,0a78.184,78.184,0,0,0,9-16.25c1.8-.1,3.6-.15,5.4-.2-.45,2.35-.7,4.7-.95,7.1-.15,1.5-.35,3.05-.35,4.55,0,5.25,2,7.55,7.35,7.55,4.9,0,9.55-1.35,11.65-6.2a1.331,1.331,0,0,0,.15-.6,1.5,1.5,0,0,0-1.5-1.45,1.468,1.468,0,0,0-1.35.9,19.862,19.862,0,0,1-1,1.75c-1.9,2.3-5.15,2.7-7.95,2.7-3.75,0-4.45-.9-4.45-4.65a40.575,40.575,0,0,1,.35-4.25c.3-2.5.6-5.05,1.1-7.5,3.15-.05,6.25-.1,9.4-.1,1.45,0,2.95.05,4.4.05A1.445,1.445,0,0,0-22.625-18.05Zm86.1-10.75a1.344,1.344,0,0,0-1.35-1.35,114.337,114.337,0,0,0-13.1.6V-31.8a115.627,115.627,0,0,1,12.5-.65,1.431,1.431,0,0,0,1.4-1.4,1.431,1.431,0,0,0-1.4-1.4,114.706,114.706,0,0,0-12.45.65c0-.6.05-1.25.05-1.85a95.178,95.178,0,0,1,11.95-.6,1.388,1.388,0,0,0,1.35-1.4,1.388,1.388,0,0,0-1.35-1.4,93.6,93.6,0,0,0-11.85.6c.05-.8.1-1.65.1-2.45a1.334,1.334,0,0,0-1.35-1.3,1.337,1.337,0,0,0-1.4,1.25c-.2,1.35-.15,3.2-.2,4.6-.1,3.1-.15,6.15-.15,9.25a32.126,32.126,0,0,0,.05,3.8,1.378,1.378,0,0,0,1.4,1.3,1.367,1.367,0,0,0,1.4-1.4c0-.85-.05-1.7-.05-2.55a104.025,104.025,0,0,1,13.1-.65A1.355,1.355,0,0,0,63.475-28.8Zm-22.3-12.55a1.431,1.431,0,0,0-1.4-1.4c-1.75,0-1.4,2.2-1.4,3.3-2.7,0-5.35,0-8.05.1a26.2,26.2,0,0,0-3.95.25,1.39,1.39,0,0,0-1.2,1.35,1.4,1.4,0,0,0,1.4,1.4h.2c3.85,0,7.7-.3,11.55-.35l-.1,2c-2.65.05-5.3.15-7.9.3a38.668,38.668,0,0,0-4.2.25,1.349,1.349,0,0,0-1.25,1.45,1.378,1.378,0,0,0,1.4,1.3h.1c3.9,0,7.75-.45,11.65-.5-.1.6-.15,1.2-.2,1.8-1.8.2-3.55.5-5.35.75-1.7.25-3.35.5-5.05.7-.8.15-1.65.2-2.45.35a1.39,1.39,0,0,0-1.2,1.35,1.4,1.4,0,0,0,1.4,1.4h.15a57.062,57.062,0,0,0,7.55-1.05c1.45-.2,2.95-.4,4.4-.65-.15.65-.95,3.2-.95,3.55a1.431,1.431,0,0,0,1.4,1.4,1.353,1.353,0,0,0,1.3-.9C41.025-28.3,41.175-35.9,41.175-41.35Zm20.55,39.4a1.431,1.431,0,0,0-1.4-1.4c-5.35,0-10.65.15-16,.25,0-.6,0-1.2.05-1.8,2.25-.05,4.55-.1,6.8-.1a1.226,1.226,0,0,0,1.15.65c.9,0,1.3-.65,1.55-1.4V-5.8a36.386,36.386,0,0,0,2-9.75,1.386,1.386,0,0,0-1.25-1.6,51.877,51.877,0,0,0-6.25-.2c-1.25,0-2.45.05-3.7.05.05-.6.1-1.2.1-1.8q5.775-.15,11.55-.15a1.388,1.388,0,0,0,1.35-1.4,1.388,1.388,0,0,0-1.35-1.4c-3.75,0-7.55.05-11.3.15a15.533,15.533,0,0,0,.2-1.6,1.4,1.4,0,0,0-1.4-1.4c-1.55,0-1.55,2-1.6,3.1-2.7.1-5.4.2-8.1.4a28.341,28.341,0,0,0-3.6.3,1.447,1.447,0,0,0-1.25,1.4,1.388,1.388,0,0,0,1.4,1.35h.15c1.05,0,2.05-.2,3.1-.3,2.7-.2,5.4-.3,8.1-.4-.05.6-.1,1.2-.1,1.8-2.55.1-5.1.2-7.6.45a1.353,1.353,0,0,0-1.2-.8,1.4,1.4,0,0,0-1.4,1.15,29.3,29.3,0,0,0-.25,5.55,39.258,39.258,0,0,0,.15,5.45,1.447,1.447,0,0,0,1.4,1.25,1.194,1.194,0,0,0,.45-.1,14.222,14.222,0,0,1,2.55-.25c1.85-.1,3.7-.2,5.55-.25v1.75c-3.35.1-6.7.2-10.1.35-1.7.1-3.55.15-5.25.4a1.318,1.318,0,0,0-1.2,1.35A1.344,1.344,0,0,0,26.375.4h.15c5,0,10-.55,15-.65v2.6a5.239,5.239,0,0,0-.05,1.25,1.4,1.4,0,0,0,2.8,0V-.35c5.35-.1,10.7-.2,16.05-.2A1.367,1.367,0,0,0,61.725-1.95ZM53.075-14.5a15.335,15.335,0,0,1-.35,2.1c-2.75-.05-5.45-.05-8.2,0,0-.7.05-1.45.05-2.15h3.5C49.725-14.55,51.425-14.55,53.075-14.5Zm-.9,4.65a16.255,16.255,0,0,1-.55,2.1c-2.4-.1-4.8,0-7.2.1v-2.2c1.15,0,2.3-.05,3.45-.05h1.65C50.375-9.9,51.275-9.85,52.175-9.85Zm-10.35-4.6-.1,2.1c-2.5.1-5,.15-7.5.4.05-.7.05-1.35.05-2.05C36.775-14.3,39.325-14.35,41.825-14.45Zm-.15,4.7c0,.7-.05,1.45-.05,2.15-2.45.1-4.85.2-7.3.4-.05-.6-.05-1.2-.05-1.8v-.35C36.725-9.6,39.225-9.7,41.675-9.75Z" transform="translate(64.325 43)" fill="#3e3e3e"/>
</svg>
