<?xml version="1.0" encoding="UTF-8"?>
<svg id="_レイヤー_1" data-name="レイヤー_1" xmlns="http://www.w3.org/2000/svg" version="1.1" viewBox="0 0 71.3 16.8">
  <!-- Generator: Adobe Illustrator 29.1.0, SVG Export Plug-In . SVG Version: 2.1.0 Build 142)  -->
  <defs>
    <style>
      .st0 {
        fill: #3e3e3e;
      }
    </style>
  </defs>
  <path class="st0" d="M5.2,9c0-.4-.2-.6-.5-.6,0,0,0,0-.1,0-.6.2-.9.4-.9.6s0,.3.3.3v.6s-2.3.3-2.3.3c0-.2-.2-.3-.3-.3-.2,0-.5.3-.8.9,0,0,0,0,0,.1,0,.3.3.4.7.4l2.7-.3v.9c0,0-.1-.2-.2-.2-.2,0-.3,0-.5,0-.4,0-.6.1-.6.4,0,.1,0,.2.1.3-.5.9-1.2,1.7-2,2.3-.2.1-.3.4-.4.6,0,.2,0,.3.2.4.1.1.3.2.4.2.2,0,.5-.1.6-.3.9-.9,1.6-1.8,2.2-2.9,0-.1,0-.2.1-.3v3.7c0,.3.3.6.6.6,0,0,0,0,.1,0,.3,0,.6-.2.6-.5,0,0,0-.1,0-.2v-3.1c.4.4.9.8,1.2,1,.2.1.4.2.6.2.1,0,.3,0,.4-.2.1-.1.2-.3.2-.5,0-.2-.2-.5-.4-.6-.7-.3-1.4-.8-2.1-1.2v-.8s2.1-.3,2.1-.3c.3,0,.5-.2.5-.5,0,0,0,0,0,0,0-.3-.2-.5-.5-.5,0,0,0,0,0,0h-.1s-2,.3-2,.3v-.8ZM10,7c0-1.1,0-2.1-.1-3.1,0-.4-.2-.6-.4-.6,0,0-.1,0-.2,0-.6.2-.9.5-.9.7s.1.2.3.3c0,1,.1,2,.1,3.1s0,2.5,0,3.5c0,1.5-.5,3.1-1.1,4.5,0,.1,0,.2-.1.4,0,.2.2.5.4.5,0,0,.2,0,.3,0,.3,0,.5-.2.6-.5.6-1.4,1-3,1.1-4.5,0-.9,0-2,0-3.2l5.6-.6c.3,0,.6-.3.6-.6,0,0,0,0,0,0,0-.3-.2-.5-.5-.5,0,0,0,0,0,0h-.1s-5.5.7-5.5.7ZM.9,7.5c-.1-.2-.2-.2-.3-.2-.2,0-.4.3-.6.9,0,0,0,0,0,.1,0,.2.3.4.7.3l7.2-.9c.3,0,.5-.2.5-.5,0,0,0,0,0,0,0-.3-.2-.5-.5-.5,0,0,0,0,0,0h0s-1.5.2-1.5.2c.2-.5.5-1,.7-1.6,0-.2,0-.3,0-.5,0-.3-.1-.4-.4-.4h-.1c-.6,0-1.1.2-1.1.5,0,.1,0,.2.2.3-.1.7-.3,1.3-.6,1.9l-1.5.2c0,0,.1-.2.1-.3,0-.1,0-.2,0-.3-.1-.5-.3-.9-.5-1.4-.1-.2-.3-.3-.5-.3-.1,0-.3,0-.4.1-.3.3-.5.5-.5.7s.1.2.4.2c.2.4.3.8.4,1.2,0,0,0,.2.1.3l-1.7.2ZM12.6,16.2c0,.5.3.6.6.6s.6-.2.6-.6v-7.4c-.1-.4-.3-.6-.6-.6,0,0-.1,0-.2,0-.6.2-.9.4-.9.7s.1.2.3.4v7ZM13.1,1.8c-.8.5-1.7,1-2.6,1.3-.3.1-.4.3-.4.5,0,.3.2.5.5.5,0,0,0,0,0,0,.1,0,.2,0,.3,0,1.2-.4,2.3-.8,3.4-1.4.2-.1.3-.4.3-.6,0-.2-.1-.4-.3-.5-.3-.2-.6-.3-1-.3-.2,0-.3.1-.3.3,0,0,0,.2,0,.2ZM1.6,3.7c-.1-.1-.2-.2-.3-.2-.2,0-.4.3-.6.9,0,0,0,0,0,.1,0,.2.2.3.5.3h.1s6-.9,6-.9c.4,0,.6-.3.5-.5,0-.3-.2-.5-.5-.5,0,0,0,0,0,0h-.1s-2.3.3-2.3.3c0-.4-.2-1-.2-1.4.1,0,.2-.2.2-.4,0-.4-.9-.4-1.1-.4s-.5.2-.5.4c0,.1,0,.2,0,.4,0,.5.3,1.1.4,1.6l-2.2.3ZM28.8,7.3c.8.6,1.6,1.1,2.5,1.6.2,0,.4.1.6.2.4,0,.6-.3.7-.7,0-.3-.2-.5-.6-.7-.9-.4-1.7-.8-2.6-1.3.3-.5.5-1,.7-1.5,0-.1,0-.2,0-.3,0-.2-.1-.5-.4-.5,0,0,0,0,0,0-.8,0-1.2.2-1.2.5,0,.1,0,.2.1.3-.4,1.1-1,2.1-1.8,2.9,0,.1-.1.3-.2.4,0,.2.1.4.3.5.1,0,.2.1.4.1.2,0,.4-.1.6-.3.3-.4.6-.8.8-1.2ZM23.1,7.6c.4.4.9.7,1.3,1,.1.1.3.2.5.2.4,0,.6-.3.7-.7,0-.2-.1-.4-.5-.6-.5-.2-.9-.5-1.4-.8.2-.4.4-.7.5-1,0-.1,0-.2,0-.4,0-.3-.2-.5-.4-.5h-.3c-.6,0-1,.1-.9.4,0,.1,0,.2.2.3-.6,1.3-1.4,2.5-2.5,3.4-.2.1-.3.3-.3.5,0,.3.3.6.7.6.3,0,.5-.2.7-.4.7-.6,1.2-1.3,1.7-2.1ZM21.3,3.4c0-.1-.2-.2-.4-.2-.3,0-.5.3-.8.9,0,0,0,0,0,.1,0,.2.3.4.6.4h0s10.9-1.1,10.9-1.1c.3,0,.6-.2.6-.6,0,0,0,0,0,0,0-.3-.2-.5-.6-.5h0s-4.9.5-4.9.5c-.1-.5-.2-1.1-.3-1.7.2-.1.3-.3.3-.4,0-.4-1-.5-1.3-.5s-.5.3-.5.6c0,0,0,.2,0,.2.1.6.3,1.2.4,1.8l-4.1.4ZM26.9,9.3c0-.4-.2-.7-.5-.7,0,0-.1,0-.2,0-.6.2-1,.5-1,.7s0,.3.3.4v.9s-5.8.5-5.8.5c0-.2-.2-.3-.4-.3-.2,0-.5.3-.8.9,0,0,0,0,0,.1,0,.3.3.4.7.4h0s6.4-.5,6.4-.5v4.1c0,.3.3.7.6.7,0,0,.1,0,.2,0,.4,0,.7-.2.7-.7v-4.2c0,0,6.6-.5,6.6-.5.3,0,.6-.2.6-.6,0,0,0,0,0-.1,0-.3-.2-.6-.6-.6,0,0,0,0,0,0h0s-6.6.5-6.6.5v-1.2ZM43.8,2.4c.1,0,.2-.3.3-.4,0-.2-.3-.4-.9-.5,0,0-.2,0-.3,0-.4,0-.6.2-.6.5,0,0,0,.1,0,.2.9,2.9,2.2,5.6,4,8,1.3,1.8,2.9,3.5,4.6,5,.2.2.4.2.6.2.3,0,.5-.1.6-.4,0-.1.1-.3.1-.4,0-.3-.2-.6-.7-.9-1.6-1.3-3-2.8-4.2-4.4-1.1-1.5-3.2-4.7-3.6-6.9ZM42.6,7.7c-.1,1.5-1.8,4.4-4.4,6.3-.2.1-.4.4-.4.7,0,.2,0,.3.1.4.1.2.3.3.5.3.3,0,.5-.1.7-.3,2.7-2.2,4.5-5.3,4.9-7.5,0,0,0-.2,0-.3,0-.4-.2-.6-.4-.6h-.3c-.6,0-1,.3-1,.6,0,.2,0,.3.2.4ZM59.1,8c1.1-1.1,2.1-2.4,2.8-3.8,0-.1,0-.2.1-.4,0-.5-.7-.7-1.2-.2l-4.3.6c0-.2-.2-.3-.3-.3-.3,0-.6.4-.8,1.1h0c0,.4.3.5.8.4l4-.6c-1.3,1.9-2.9,3.6-4.7,5-.3.1-.4.4-.4.7,0,.1,0,.3.1.4,0,.1.3.2.4.2.2,0,.5-.2.6-.3.6-.5,1.4-1.3,2.3-2.2h0c0,0,0,6.4,0,6.4,0,.3.2.6.5.7,0,0,0,0,.1,0,.3,0,.6-.2.6-.5,0,0,0,0,0-.1v-6.4c0-.3-.3-.6-.6-.6,0,0,0,0-.1,0h0ZM66.5.9c0-.4-.2-.7-.5-.7,0,0-.1,0-.2,0-.6.2-1,.5-1,.7s.1.3.3.4v4.3c0,0-2.2.2-2.2.2,0-.2-.2-.3-.3-.3-.2,0-.4.3-.7.9,0,0,0,0,0,.1,0,.2.3.4.6.4h0s2.6-.3,2.6-.3v6.5c.1,0-3.1.2-3.1.2-.1-.2-.2-.3-.4-.3-.2,0-.5.3-.7,1,0,0,0,0,0,.1,0,.3.3.4.7.4l8.9-.6c.3,0,.6-.2.6-.5,0,0,0,0,0-.1,0-.3-.2-.6-.5-.6,0,0,0,0-.1,0h0s-3.8.3-3.8.3v-6.5c-.1,0,2.7-.3,2.7-.3.4,0,.6-.3.6-.6h0c0-.4-.3-.6-.6-.6,0,0,0,0,0,0h-.1s-2.7.3-2.7.3V.9ZM58.8.7c0,0,.1-.2.1-.3,0-.2-.3-.3-.8-.3-.1,0-.3,0-.4,0-.2,0-.3.2-.3.5,0,.2,0,.3.1.5.3.7.8,1.4,1.3,2,.1.2.4.3.6.4.1,0,.3,0,.4-.1.2,0,.3-.3.3-.5,0-.2,0-.3-.2-.5-.4-.5-.8-1.1-1.1-1.7ZM61.1,8c0,0,0-.1,0-.2,0-.3-.5-.4-1-.1-.1,0-.2.2-.2.3,0,.3.2.5.4.7.5.6,1,1.2,1.6,1.7.1.1.3.2.5.2.3,0,.6-.3.6-.7,0-.2-.2-.4-.4-.6-.6-.4-1.1-.9-1.6-1.5Z"/>
</svg>