<?xml version="1.0" encoding="UTF-8"?>
<svg id="_レイヤー_1" data-name="レイヤー_1" xmlns="http://www.w3.org/2000/svg" version="1.1" viewBox="0 0 178.1 71.5">
  <!-- Generator: Adobe Illustrator 29.1.0, SVG Export Plug-In . SVG Version: 2.1.0 Build 142)  -->
  <defs>
    <style>
      .st0 {
        fill: #fff;
      }

      .st1 {
        fill: #fc7e00;
      }
    </style>
  </defs>
  <polygon class="st1" points="178.1 71.1 177.9 26.1 165.9 26.2 165.8 0 0 .8 .2 45.8 95 45.4 95.1 71.5 178.1 71.1"/>
  <g>
    <path class="st0" d="M69.9,15c-.6,0-1,.2-1,.5,0,.2,0,.3.2.5-1,2-2.4,3.7-4.1,5.1-1.9,1.6-4.1,2.9-6.3,3.8-.4.2-.5.4-.5.6,0,.1,0,.3.1.4,0,.2.3.4.6.4.2,0,.4,0,.6-.2,2.2-1,4.3-2.2,6.2-3.7v7.3c0,.6.3.8.7.8.4,0,.8-.2.8-.6,0,0,0,0,0,0v-6.9c.1,0,.3-.2.3-.4,0-.3-.3-.6-.9-.8,1.6-1.4,2.9-3.1,3.9-5,.2-.3.2-.6.3-.9,0-.1,0-.2,0-.3,0-.3-.3-.5-.7-.5Z"/>
    <path class="st0" d="M92.4,28c-.3-.2-.5-.3-.7-.5-2.2-1.9-5.6-6.7-7.5-9.6-.4-.7-.9-1-1.3-1-.5,0-.9.4-1.2,1.2-.9,2.1-2,4-3.3,5.9,0,0-.1,0-.2,0-.3,0-.5.2-.6.5,0,0,0,0,0,0,0,.3.1.6.3.8.2.2.4.3.6.3.1,0,.2,0,.3,0,.5-.2.9-.5,1.1-1,.7-1.2,2-3.8,2.8-5.5,0-.2.2-.3.2-.3,0,0,.2,0,.3.2,2.3,3.4,4.7,6.6,7.4,9.7.3.4.8.7,1.3.8,0,0,.1,0,.1,0,.3,0,.6-.2.8-.6,0,0,0-.2,0-.2,0-.3-.2-.6-.5-.8Z"/>
    <path class="st0" d="M91.6,19.9c0,.2.3.3.5.3.1,0,.3,0,.4-.2.1,0,.2-.2.2-.4,0-.1,0-.2-.1-.4-.5-1-1.2-1.9-1.9-2.8,0,0,0-.1,0-.2,0-.3-.3-.5-.6-.5-.2,0-.3,0-.5.1-.2,0-.3.3-.3.5,0,.2.1.4.3.5.8.9,1.5,1.9,2.1,3Z"/>
    <path class="st0" d="M112.8,21.8s0,0,0,0c0-.4-.3-.7-.7-.7,0,0,0,0,0,0-.3,0-1,0-1.6.1-3.2.2-8.2.4-11.1.5-.1-.2-.3-.3-.5-.3-.4,0-.7.4-.9,1.1,0,0,0,.1,0,.2,0,.3.3.6.7.6,0,0,0,0,0,0,3.6-.2,10.2-.4,13.4-.6.4,0,.7-.3.7-.7Z"/>
    <path class="st0" d="M32.1,14.3c0,0-.2,0-.3,0-1.2,0-2.2,1.1-2.2,2.3,0,.2,0,.4.1.7-2.6.1-7.2.3-9.8.3,0-.2-.3-.4-.5-.4-.3,0-.7.3-.9,1,0,0,0,.2,0,.2,0,.4.3.5.7.5,3.3-.2,8.3-.4,10.7-.5,0,2.5-.9,4.9-2.3,6.9-1.5,1.7-3.5,2.9-5.7,3.4-.4,0-.6.4-.6.7,0,0,0,.2,0,.3,0,.3.4.5.7.5.2,0,.3,0,.5-.1,2.3-.8,4.9-2.1,6.5-4.1,1.5-2.2,2.4-4.8,2.5-7.6h.2c1.3,0,2.3-1.1,2.3-2.4,0-1-.8-1.9-1.8-1.9ZM31.6,17.7c-.6,0-1.1-.4-1.1-1,0,0,0,0,0-.1,0-.7.6-1.3,1.3-1.3,0,0,0,0,0,0,.6,0,1.1.4,1.2,1,0,0,0,0,0,.1,0,.7-.6,1.3-1.4,1.3Z"/>
    <path class="st0" d="M151.7,17s0,0,0,0c0,0-.2,0-.2,0-1.8.3-4.1.5-6.2.6,0-.7.1-1.5.1-2.2,0-.6-.4-.8-.8-.8-.7,0-1.1.4-1.1.7,0,.2.2.4.4.5,0,.6,0,1.2-.1,1.8-.7,0-1.3,0-1.9,0-.8,0-1.6,0-2.2,0,0-.2-.2-.4-.4-.4-.3,0-.6.3-.8,1,0,0,0,0,0,.1,0,.3.3.5.7.5.6,0,1.3,0,2.1,0,.8,0,1.6,0,2.4,0l-.3,2.7h-1c-.9,0-1.8,0-2.4,0-.1-.3-.2-.4-.4-.4-.2,0-.5.3-.7.8,0,0,0,.2,0,.3,0,.3.3.5.8.5.9,0,1.8.1,2.7.1h.9c0,1-.2,2-.3,2.9,0,.2,0,.3,0,.5,0,2.4,1.9,3.3,3.8,3.3,2.8,0,4.2-1.6,4.2-3.4,0-.6-.1-1.3-.4-1.8-.1-.3-.4-.4-.7-.5-.2,0-.3,0-.5.2-.2,0-.2.3-.2.5,0,.1,0,.2,0,.4.1.5.2.9.2,1.4,0,1.1-1,1.9-2.7,1.9-1.3,0-2.3-.4-2.3-2.1,0,0,0-.2,0-.3,0-.9.2-1.9.3-2.9,2,0,3.9-.3,5.9-.6.6-.1.8-.3.8-.7,0-.3-.2-.6-.5-.6,0,0,0,0-.1,0-.1,0-.2,0-.4,0-1.8.3-3.7.5-5.5.6l.3-2.7c2.2-.1,4.5-.3,6.5-.5.4,0,.7-.3.7-.7,0,0,0,0,0,0,0-.3-.3-.6-.6-.6Z"/>
    <path class="st0" d="M40.9,17.8c2.5,0,6.1-.2,8.7-.5.4,0,.7-.3.7-.7h0c0-.3-.2-.6-.7-.6,0,0-.3,0-.4,0-2.2.3-4.4.4-6.6.5-.3,0-.7,0-1,0,0-.2-.3-.3-.5-.3-.3,0-.7.3-.9.9,0,0,0,.1,0,.2,0,.3.2.5.7.5Z"/>
    <path class="st0" d="M89.9,21.4c0,.2.3.3.5.3.1,0,.3,0,.4-.2.1,0,.2-.2.2-.4,0-.1,0-.2-.1-.4-.5-1-1.2-1.9-1.9-2.8,0,0,0-.1,0-.2,0-.3-.3-.5-.6-.5-.2,0-.3,0-.5.1-.2,0-.3.3-.3.5,0,.2.1.4.3.5.8.9,1.5,1.9,2.1,3Z"/>
    <path class="st0" d="M131.1,23.9c0-.1,0-.3,0-.4,0-.4-.3-.7-.6-.8-2-.9-4-1.7-6.1-2.4,0-1.7,0-3.5,0-5,0-.3-.3-.6-.6-.6,0,0-.1,0-.2,0-.7.2-1.1.5-1.1.8,0,.2.2.4.4.5,0,.7,0,1.6,0,2.4,0,3,0,6.5-.1,9.8,0,.5,0,1.4,0,1.7,0,.5.3.6.7.6.4,0,.8-.3.8-.8,0-2.3.1-5.2.1-8.2,1.8.7,3.6,1.5,5.3,2.5.2.1.4.2.7.2.3,0,.5-.1.6-.4Z"/>
    <path class="st0" d="M51.1,20.1c-.1,0-.3,0-.4,0-.3,0-.6.2-.7.4-3.2.2-7.4.4-10.1.6-.1-.2-.3-.4-.5-.4-.3,0-.6.3-.8,1,0,0,0,.1,0,.2,0,.3.3.5.5.5,0,0,0,0,0,0,.2,0,.7,0,1.1,0,3.2-.2,6.7-.4,9.8-.5,0,1.9-.9,3.8-2.2,5.2-1.6,1.2-3.4,1.9-5.3,2.1-.4,0-.7.3-.7.7,0,0,0,0,0,.1.1.4.3.6.7.6.1,0,.3,0,.4,0,2.3-.3,4.4-1.2,6.2-2.6,1.5-1.3,2.3-3.8,2.5-6.3,0-.2,0-.4,0-.5,0-.3-.1-.7-.4-.8Z"/>
    <path class="st0" d="M133.9,45.7l10.7-.9c-.2.4-.4.9-.7,1.3,0,.1-.1.3-.1.4,0,.3.4.5.7.5.2,0,.4,0,.6-.4.5-.7.9-1.3,1.3-2.1,0-.2.1-.3.1-.5,0-.4-.4-.8-.8-.7,0,0,0,0,0,0-.3,0-.5.1-.7.3l-5.8.5c-.1-.6-.2-1.2-.3-1.8.2,0,.3-.3.3-.4,0-.3-.5-.6-1.2-.6-.4,0-.7.2-.7.6,0,0,0,0,0,.1,0,0,0,.1,0,.2.1.7.3,1.4.5,2l-3.5.3c0-.2-.2-.3-.4-.3-.3,0-.6.3-.8,1,0,0,0,0,0,.1,0,.3.3.5.9.4Z"/>
    <path class="st0" d="M113,49.9c-.3,0-.5.3-.5.6,0,0,0,0,0,0,0,.1,0,.3,0,.4.1.2.3.4.6.3.1,0,.3,0,.4,0,3-.2,6-.7,9-1.3.4.4.8.8,1.1,1.1.2.2.4.3.7.3.1,0,.3,0,.4-.1.2-.1.4-.3.4-.6,0-.3-.2-.5-.4-.7-1.2-.9-2.2-2-3.2-3.1,0,0,.1-.2.1-.3,0-.2-.3-.4-.7-.4-.2,0-.4,0-.6,0-.2,0-.3.2-.3.4,0,.2,0,.4.2.6.4.6.9,1.2,1.4,1.7-2,.3-4.1.5-6.1.7.8-.8,1.7-2,2.3-2.8.1-.1.2-.3.2-.5,0-.3-.3-.6-.7-.6,0,0,0,0,0,0-.9,0-1.3.2-1.3.5,0,.1,0,.2.1.3-.7,1.2-1.5,2.3-2.4,3.2h-.8Z"/>
    <path class="st0" d="M131,44.7c0,.1,0,.3.2.3h0c0,.9-.1,1.7-.3,2.4,0,.1,0,.3,0,.4,0,.5.3.6.8.7h0c.4,0,.7-.2.8-.8.1-1,.2-2,.2-3,0-.5-.3-.8-.6-.8,0,0,0,0-.1,0-.6.1-.9.4-.9.7Z"/>
    <path class="st0" d="M112.4,44.6c-.3,0-.6.3-.9,1,0,0,0,0,0,.1,0,.3.3.4.7.4h.1s12.9-1.1,12.9-1.1c.4,0,.7-.3.7-.6,0,0,0,0,0-.1,0-.3-.2-.6-.7-.6h-.1s-6,.5-6,.5c-.2-.6-.3-1.3-.3-2h0c.1-.2.2-.4.3-.5,0-.3-.4-.5-1.3-.5-.4,0-.6.3-.6.7,0,0,0,.2,0,.2.1.7.3,1.5.5,2.2l-4.9.4c0-.1-.3-.2-.4-.2Z"/>
    <path class="st0" d="M146.5,52h0s-7.3.4-7.3.4v-1.4s4.7-.3,4.7-.3c.3,0,.6-.2.6-.5,0,0,0,0,0-.1,0-.3-.2-.5-.6-.5h0s-4.6.3-4.6.3v-1.3s4.3-.3,4.3-.3c.3,0,.6-.2.6-.5,0,0,0,0,0,0,0-.3-.2-.5-.5-.5,0,0,0,0,0,0h0s-4.2.3-4.2.3v-.7c0-.6-.3-.9-.6-.9,0,0,0,0-.1,0-.7.2-1,.4-1,.7,0,.1.1.3.3.4v.7s-3.4.3-3.4.3c0-.2-.2-.3-.3-.3-.2,0-.6.3-1,1,0,0,0,0,0,.1,0,.2.3.4.6.4h.1s4-.3,4-.3v1.3s-3.7.2-3.7.2c-.1-.2-.3-.4-.5-.4-.3,0-.6.3-.8,1,0,0,0,0,0,.1,0,.2.3.4.7.4l4.3-.3v1.4s-5.8.3-5.8.3c0-.2-.3-.4-.5-.4-.3,0-.6.4-1,1.1,0,0,0,.1,0,.2,0,.2.3.4.7.4h0s6-.4,6-.4c-.6,1.4-1.9,2.7-5.5,4-.3,0-.5.3-.5.6,0,.4.3.7.7.7.2,0,.3,0,.5-.1,4.3-1.7,5.8-3.4,6.5-5.4l7.7-.5c.3,0,.6-.2.6-.6,0,0,0,0,0-.1,0-.3-.2-.6-.7-.6Z"/>
    <path class="st0" d="M158.7,55.5c-.8,0-1.4.6-1.4,1.4,0,.8.6,1.4,1.4,1.4.8,0,1.4-.6,1.4-1.4,0-.8-.6-1.4-1.4-1.4Z"/>
    <path class="st0" d="M116.5,51.7c0,0-.1,0-.2,0-.6.2-1,.5-1,.7,0,.1.1.2.3.3-.1,1-.6,1.9-1.3,2.5-.8.8-1.8,1.4-2.9,1.9-.2,0-.4.3-.4.6,0,.2,0,.4.2.5.1.2.3.2.5.2.3,0,.6-.1.9-.3,1.2-.6,2.3-1.4,3.1-2.4.8-.9,1.3-2,1.4-3.1h0c0-.7-.2-1-.5-1Z"/>
    <path class="st0" d="M157.8,43.5l.4,9.5c0,.3.2.6.5.6,0,0,0,0,0,0,.3,0,.6-.2.6-.5,0,0,0,0,0,0l.3-9.8v-.2c0-.6-.1-1.1-.7-1.1-.1,0-.3,0-.4,0-.9.2-1.3.6-1.3.9,0,.2.2.4.5.5Z"/>
    <path class="st0" d="M126.2,54.2s0,0-.1,0c-.5,0-.7.2-.8.8-.2,1.8-.4,2-1.3,2.2-.7,0-1.3.1-2,.1-.2,0-.4,0-.6,0-.6,0-.8-.2-.8-.7h0c0,0,.1-4.6.1-4.6h0c0-.4-.2-.7-.5-.8,0,0,0,0,0,0,0,0-.1,0-.2,0-.7.2-1.1.5-1.1.7,0,.2.1.3.4.4v4.6c-.1,0-.1.2-.1.2,0,1.1.4,1.4,2,1.5.3,0,.5,0,.8,0,.9,0,1.9,0,2.8-.2.9,0,1.7-.7,1.8-1.6.1-.6.2-1.2.3-1.8h0c0-.5-.2-.9-.6-.9Z"/>
    <path class="st0" d="M146.3,57.6c-2.1-.8-4.1-1.9-5.8-3.3,0,0,0-.2,0-.2,0-.2-.2-.3-.4-.3-.3,0-.6,0-.8.2-.2,0-.3.3-.3.5,0,.2,0,.3.2.5,1.8,1.8,3.9,3.2,6.2,4.2.2,0,.4.1.6.2.3,0,.6-.2.7-.5,0-.1,0-.2,0-.4,0-.4-.3-.7-.6-.8Z"/>
  </g>
</svg>