<?xml version="1.0" encoding="UTF-8"?>
<svg id="_レイヤー_1" data-name="レイヤー_1" xmlns="http://www.w3.org/2000/svg" version="1.1" viewBox="0 0 79.5 39.5">
  <!-- Generator: Adobe Illustrator 29.1.0, SVG Export Plug-In . SVG Version: 2.1.0 Build 142)  -->
  <defs>
    <style>
      .st0 {
        fill: #fff;
      }

      .st1 {
        fill: #fc7e00;
      }
    </style>
  </defs>
  <polygon class="st1" points="79.4 39.5 79.5 17.2 72.8 17.2 72.8 0 0 0 0 22.2 8.5 22.2 8.4 39.4 79.4 39.5"/>
  <g>
    <path class="st0" d="M21.2,14.7c.4,0,.9,0,1.3,0,.3,0,.6-.1.8-.3,0,0,.1-.2.1-.2,0-.1,0-.2-.1-.3,0,0-.1,0-.2-.1,0,0-.2,0-.3,0-.2,0-.3.1-.5.2-.4,0-.8,0-1.2,0-.4,0-.8,0-1.2,0-.5,0-.7-.3-.7-.6,0-.1,0-.3.2-.4.4-.5.9-.8,1.5-1.1,0,.2.2.4.2.7,0,.2.1.3.3.3,0,0,0,0,0,0,.2,0,.3-.1.3-.3,0,0,0,0,0,0h0c0-.4-.1-.7-.2-.9.7-.3,1.3-.5,2-.7.2,0,.3-.2.3-.3,0,0,0-.1,0-.2-.1-.2-.3-.3-.5-.3-.1,0-.2,0-.2.2,0,0,0,0,0,0,0,0,0,0,0,0-.6.2-1.2.4-1.8.7-.5-.4-1-.6-1.6-.6.2-.3.5-.7.7-1.1,1.2,0,2.5-.2,3.7-.4.3,0,.4-.2.4-.3h0c0-.2-.2-.3-.3-.3,0,0,0,0-.1,0-1.1.2-2.2.4-3.3.4.2-.4.4-.8.5-1,0-.1,0-.2,0-.4,0-.2-.1-.3-.4-.3-.4,0-.6.1-.6.3,0,0,0,.1.1.2-.2.4-.4.8-.6,1.2-.2,0-.4,0-.6,0-.5,0-.9,0-1.4,0,0-.1-.1-.2-.2-.2-.1,0-.3.1-.5.4,0,0,0,0,0,0,0,.1.1.2.3.2.6.1,1.1.1,1.7.1h.3c-.2.3-.4.6-.6.8,0,0-.1.2-.1.3,0,0,0,.2,0,.3.1.2.3.2.6.2.4,0,.8.1,1.1.3-.6.3-1.1.7-1.6,1.1-.3.3-.4.6-.5,1,0,.5.5,1,1.4,1.1.5,0,.9,0,1.4,0Z"/>
    <path class="st0" d="M14.9,10.6c-1.4-1-2.7-2.1-3.9-3.3,0,0,0-.2,0-.2,0-.2-.1-.3-.3-.3,0,0-.1,0-.2,0-.3,0-.6,0-.6.2,0,0,0,.1.1.2-.9,1.5-2.1,2.8-3.6,3.8-.1,0-.2.2-.2.3,0,.1,0,.2.1.3,0,0,.1,0,.2,0,.2,0,.3,0,.4-.2,1.3-1,2.5-2.2,3.4-3.6,1.1,1.2,2.3,2.4,3.7,3.4.1.1.3.2.4.2.1,0,.2,0,.3-.1,0,0,.1-.2.1-.3,0-.1,0-.3-.3-.4Z"/>
    <path class="st0" d="M30.4,15.5h0c.2,0,.3-.1.3-.3,0,0,0,0,0,0h0s3.1-.2,3.1-.2c.2,0,.3-.1.3-.3,0-.1,0-.2-.2-.3l.3-2h0c0-.5-.2-.6-.4-.6-.1,0-.3,0-.4.2h-1.2c0,.1,0-1.6,0-1.6l2.6-.2c.2,0,.3-.1.3-.3,0,0,0,0,0,0,0-.2-.1-.3-.3-.3h0s-2.5.2-2.5.2v-1c0-.2,0-.4-.3-.4,0,0,0,0-.1,0-.3,0-.5.2-.5.4,0,0,0,.2.2.2v.8s-2.2.2-2.2.2c0-.1,0-.1-.2-.1-.2,0-.3.2-.4.5,0,0,0,0,0,0,0,.1.1.2.3.2,0,0,.1,0,.2,0l2.3-.2v1.7s-.4,0-.4,0c0,0,0-.1-.1-.1-.1,0-.3.1-.3.4,0,0,0,0,0,0,0,.2.1.3.4.2l2.4-.2-.2,1.8h-2.6c0,.1-.2-2-.2-2,0-.2-.1-.4-.3-.4,0,0,0,0,0,0-.3.1-.5.3-.5.5,0,0,0,.2.2.2l.3,2.5c0,.3.2.4.3.4Z"/>
    <path class="st0" d="M9.6,10.6l2.5-.2c.2,0,.3-.1.3-.3,0,0,0,0,0,0,0-.2-.1-.3-.4-.3h-.1s-2.2.2-2.2.2c0,0-.1-.1-.2-.1-.1,0-.2.1-.4.5,0,0,0,0,0,0,0,.2.2.3.4.2Z"/>
    <path class="st0" d="M40.3,13.9c0,0-.2,0-.3,0-.1,0-.3-.2-.4-.3,0,0-.2-.1-.3-.1-.2,0-.3.2-.3.4,0,.1,0,.2.1.3.2.2.4.4.7.5.2,0,.4.1.6.1.4,0,.8-.3,1.1-1,.3-.9.4-1.8.4-2.7,0-.3,0-.5,0-.8,0-.7-.7-1.2-1.3-1.1,0,0,0,0,0,0-.2,0-.4,0-.6,0,0-.4.1-.9.1-1.3,0-.1,0-.2,0-.3,0-.2-.1-.4-.3-.4h0c-.4,0-.6.2-.6.4,0,0,0,.2.2.2,0,.1,0,.2,0,.4,0,.4,0,.7-.1,1.1-.6,0-1.1.2-1.5.3,0,0-.1-.1-.2-.1-.2,0-.3.2-.4.5,0,0,0,0,0,0,0,.1,0,.3.2.3,0,0,0,0,0,0,0,0,.1,0,.2,0,.4,0,1-.2,1.5-.3-.3,1.4-.9,2.6-1.8,3.7-.1.1-.2.2-.2.4,0,.2.2.4.4.4.1,0,.2,0,.3-.2,1-1.3,1.7-2.8,2.1-4.4.2,0,.5,0,.7,0,.5,0,.7.2.7.6,0,.2,0,.4,0,.6,0,.8-.1,1.7-.4,2.4-.1.4-.3.5-.5.5Z"/>
    <path class="st0" d="M48.8,8.9c0,.5,0,1.2-.1,2.1,0,.6,0,1.1,0,1.6,0,.2,0,.3,0,.5,0,1,.9,1.8,2,1.8,0,0,.1,0,.2,0,.9,0,1.7-.4,2.3-1.1.5-.6.8-1.4.9-2.1,0,0,0-.1,0-.2,0-.2,0-.3-.2-.4,0,0,0,0-.1,0-.2,0-.3,0-.3.2-.1.7-.4,1.4-.8,2-.4.5-1,.8-1.7.8-.7,0-1.2-.4-1.3-1,0,0,0,0,0,0,0-.2,0-.4,0-.6,0-.4,0-.9,0-1.5,0-.8.1-1.7.1-2.3,0-.3,0-.6,0-.8,0-.2-.2-.3-.3-.3,0,0-.1,0-.2,0-.3.1-.5.3-.5.4,0,.1,0,.2.2.2,0,.3,0,.5,0,.8Z"/>
    <path class="st0" d="M28.2,10.8c-.4-.2-.8-.4-1.2-.7,0,0,0,0,0-.1,0,0,0-.2-.1-.2,0,0,0,0,0,0-.2,0-.3,0-.5.2,0,0-.1.1-.1.2,0,.2,0,.3.2.4.5.4,1,.7,1.6.9-.3.9-.7,1.8-1.2,2.6,0,0-.1,0-.2,0-.1,0-.2,0-.2.2,0,.2.1.5.3.6,0,0,.1.2.2.2.1,0,.2,0,.4-.3.6-1,1-2,1.4-3.1,0,0,0-.2,0-.3,0-.3-.2-.4-.6-.5Z"/>
    <path class="st0" d="M61.5,14.7c.1,0,.2,0,.3,0,.3,0,.6,0,1-.1.1,0,.2-.2.2-.4,0,0,0-.1,0-.2,0-.1-.2-.2-.3-.2,0,0,0,0-.1,0-.2,0-.5.1-.7,0-.9,0-1.6-.6-1.7-1.5,0,0,0-.2,0-.2,0-.9.5-2.4,2.9-3.4.4,0,.7,0,1-.1.2,0,.3-.2.3-.4h0c0-.2-.2-.4-.3-.4,0,0,0,0-.1,0-1.7.4-3.5.6-5.3.6-.3,0-.6,0-.8,0,0-.1-.1-.2-.2-.2-.2,0-.3.1-.5.5,0,0,0,0,0,.1,0,.2.3.3.6.3.1,0,.3,0,.4,0,1.1,0,2.2,0,3.3-.2-1.2.6-1.9,1.8-2,3.2,0,1.2.8,2.3,2.1,2.4Z"/>
    <path class="st0" d="M43.9,12.1c0,.3.2.4.4.4.2,0,.4-.1.4-.3,0,0,0,0,0,0,0,0,0-.1,0-.2-.3-1.2-.7-2.3-1.4-3.4,0,0,0-.1,0-.2,0-.2-.1-.3-.4-.3,0,0-.1,0-.2,0-.1,0-.3.1-.3.3,0,0,0,.1,0,.2.7,1,1.2,2.2,1.4,3.5Z"/>
    <path class="st0" d="M29.6,8.3c0,.1.1.2.3.2,0,0,.1,0,.2,0,1.2-.2,2.3-.5,3.4-.9.1,0,.2-.2.2-.3,0,0,0-.2,0-.2-.2-.1-.4-.2-.6-.3-.1,0-.2,0-.2.2,0,0,0,0,0,0-.9.4-1.9.7-2.9.9-.2,0-.3.1-.3.3,0,0,0,0,0,0,0,0,0,0,0,0Z"/>
    <path class="st0" d="M13,11.2s0,0,0,0c-.2,0-.3,0-.4.2l-4.1.3c0-.1-.1-.2-.2-.2-.1,0-.3.2-.4.5,0,0,0,0,0,0,0,.1.2.3.4.3l4-.3-1.9,2.9c0,0-.1.2-.1.3,0,.2.2.3.4.3.1,0,.3,0,.3-.2l2.3-3.5c0,0,.1-.2.1-.3,0-.2-.2-.4-.4-.4Z"/>
    <path class="st0" d="M27,8.2c.3.3.7.6,1.1.9,0,0,.2,0,.3.1.1,0,.2,0,.3-.2,0,0,0-.1,0-.2,0-.1,0-.3-.3-.4-.3-.2-.7-.4-.9-.7,0,0,0,0,0-.1,0-.1,0-.2-.2-.2-.2,0-.3,0-.5.1-.1,0-.2.1-.2.2,0,.2,0,.3.2.4Z"/>
    <path class="st0" d="M21.2,30.9c-1.6,0-2.7-.5-3.1-1.2,0-.2-.2-.4-.2-.6,0-.1,0-.2,0-.3,0,0,0-.2,0-.3,0-.2-.1-.3-.3-.4,0,0,0,0,0,0-.1,0-.3,0-.4.2-.1.2-.2.5-.2.7,0,.3,0,.7.3,1,.5.9,1.8,1.6,3.7,1.6.3,0,.4-.2.4-.4,0-.2,0-.4-.4-.4Z"/>
    <path class="st0" d="M50.5,24c-.1,0-.3.1-.4.4,0,0,0,0,0,0,0,.1.1.2.3.2h0s3-.3,3-.3c0,.2-.1.3-.2.4,0,0,0,.1,0,.2,0,0,0,.2.1.2,0,0,0,0,.1,0,.1,0,.2,0,.3-.2.2-.2.3-.5.4-.8,0,0,0-.1,0-.2,0-.2-.2-.4-.4-.4,0,0,0,0,0,0-.1,0-.2,0-.3.1l-3,.3c0,0,0-.1-.2-.1Z"/>
    <path class="st0" d="M23.7,25.6c0-.2-.1-.3-.3-.3,0,0,0,0-.1,0-.8.2-1.6.3-2.5.4-.2-.5-.3-1-.5-1.4,0,0,.1-.1.1-.2,0-.1-.2-.3-.5-.3-.2,0-.4.2-.4.4,0,.2,0,.3.1.5.2.3.3.7.4,1.1-1.1,0-2.1.1-2.9.1h-.3c0-.1-.1-.2-.2-.2-.2,0-.3.2-.5.6,0,0,0,0,0,0,0,.1.1.2.4.3.2,0,.4,0,.6,0,1,0,2.1,0,3.1-.2.1.4.2.7.3.9,0,.2,0,.4,0,.6,0,0,0,.2,0,.3,0,.1-.2.3-.4.3-.2,0-.2.2-.2.3,0,.2.1.3.3.3,0,0,0,0,0,0,0,0,.2,0,.2,0,.5-.2.8-.6.9-1,0-.3,0-.6-.1-.9,0-.1-.1-.4-.2-.8.8,0,1.6-.2,2.3-.4.3,0,.3-.2.3-.4h0Z"/>
    <path class="st0" d="M30.5,25.6c-.1,0-.2.1-.2.3,0,.2.1.3.3.3,0,0,0,0,0,0,0,0,.1,0,.2,0,.2,0,.4-.2.6-.3.2,0,.4-.3.5-.6,0-.3-.2-.5-.4-.6-.4-.3-.8-.5-1.2-.7h0c0-.3-.3-.3-.6,0,0,0-.1.1-.1.2,0,.1.1.2.2.3.4.1.8.3,1.2.6,0,0,.1.1.1.2,0,0,0,0-.1.1-.1,0-.3.2-.5.2Z"/>
    <path class="st0" d="M69.9,30.5c-.4,0-.7.3-.7.7,0,.4.3.7.7.7.4,0,.7-.3.7-.7,0-.4-.3-.7-.7-.7Z"/>
    <path class="st0" d="M49.4,29.4c0,0,0-.1,0-.2,0,0-.1-.1-.2-.1,0,0-.1,0-.2,0-.2.1-.6.4-.9.5v-2.3s.7,0,.7,0c.2,0,.3-.2.3-.3,0,0,0,0,0,0,0-.2,0-.3-.3-.3h0s-1.1.1-1.1.1v-2.9c0-.2,0-.4-.2-.4,0,0,0,0,0,0-.3,0-.5.2-.5.3,0,0,0,.2.2.2v2.8s-1,.1-1,.1c0-.1-.1-.2-.2-.2-.1,0-.3.2-.4.5,0,0,0,0,0,0,0,.1.1.2.3.2h0s1.7-.2,1.7-.2v2.6s0,0,0,0c-.1,0-.2.2-.2.3,0,0,0,.1,0,.2,0,0,.2.1.3.2,0,0,.2,0,.3,0,.5-.3,1-.7,1.5-1.1,0,0,.1-.1.2-.2Z"/>
    <path class="st0" d="M47.1,28.2c0-.2,0-.3-.2-.3,0,0,0,0,0,0-.3,0-.5.2-.5.3,0,0,0,.1.1.2-.1.9-.4,1.7-1,2.4,0,0-.1.2-.1.3,0,0,0,.2.1.2,0,0,.1,0,.2,0,.1,0,.3,0,.4-.2.6-.8,1-1.8,1.1-2.8,0,0,0-.1,0-.2Z"/>
    <path class="st0" d="M54.2,29.8s0,0,0,0h0s-2,.1-2,.1v-.8s1.1,0,1.1,0c0,.1.1.3.3.3,0,0,0,0,0,0,.2,0,.3,0,.3-.2,0,0,0,0,0,0v-2.4c.1,0,.1,0,.1,0,0-.3-.1-.4-.3-.4-.1,0-.2,0-.3.1h-1.2c0,.1,0-.4,0-.4h1.1c.2-.1.3-.3.3-.4,0-.1-.1-.2-.2-.3,0,0,0,0,0,0h0s-1.1.1-1.1.1v-.4c0-.2-.1-.3-.3-.3,0,0,0,0,0,0-.3,0-.4.2-.4.3,0,0,0,.1,0,.2v.3s-.9,0-.9,0c0,0,0-.1-.2-.1-.1,0-.3.2-.4.4,0,0,0,0,0,0,0,.1.1.2.3.2h1.1c0-.1,0,.4,0,.4h-.6s0,0-.1,0c-.1,0-.3.1-.3.4h0c0,.2.1.3.2.3,0,0,0,0,0,0h0s.8,0,.8,0v.6s-1.1,0-1.1,0v-.8c0-.2-.2-.3-.3-.3,0,0,0,0,0,0-.3.1-.4.3-.4.4,0,0,0,.1.1.1l.2,2.2c0,.2.1.3.3.3.2,0,.3,0,.3-.3h0s1-.1,1-.1v.8s-1.8.1-1.8.1c0-.1-.1-.2-.2-.2-.1,0-.3.2-.4.5,0,0,0,0,0,0,0,.1.2.2.4.2h2.1c0-.1,0,1.2,0,1.2,0,.3.1.4.3.4s.3,0,.3-.3v-1.4s2.1-.1,2.1-.1c.2,0,.3-.1.3-.3,0,0,0,0,0,0,0-.2-.1-.3-.3-.3ZM50.3,28.7v-.6s1,0,1,0v.6s-1,0-1,0ZM52,28.6v-.6s.7,0,.7,0c.2,0,.3-.1.3-.2,0-.1,0-.2-.2-.3,0,0,0,0,0,0h0s-.7,0-.7,0v-.6s1.2-.1,1.2-.1v1.7c0,0-1.2,0-1.2,0Z"/>
    <path class="st0" d="M46.3,26.6c0,0,.1,0,.2,0,.1,0,.2-.2.2-.3,0,0,0-.1,0-.2-.1-.5-.3-1-.5-1.4,0-.2-.2-.3-.3-.3,0,0-.1,0-.2,0-.2,0-.3.2-.3.4,0,0,0,.2.2.2.2.4.3.9.4,1.3,0,.2.2.3.3.3Z"/>
    <path class="st0" d="M61.9,30.6c-.9-.7-2.7-1.9-3.8-2.6.9-1,2-1.9,3.1-2.7.3-.1.5-.4.5-.7,0-.2-.1-.4-.4-.4-.3,0-.4.1-.4.2,0,0,0,.1,0,.2-.9.8-2.4,2.1-3.3,3-.2.2-.4.4-.4.6,0,0,0,0,0,0,0,.2.2.3.3.3,0,0,0,0,.1,0,1,.7,2.9,2.1,3.8,2.7.1.1.2.3.3.4,0,0,.2.1.3.1,0,0,.1,0,.2,0,.1,0,.2-.2.2-.4,0,0,0-.1,0-.2,0-.2-.3-.4-.4-.5Z"/>
    <path class="st0" d="M69.9,29.6s0,0,0,0c.2,0,.3-.1.3-.3,0,0,0,0,0,0l.2-4.9h0c0-.4,0-.6-.3-.6,0,0-.1,0-.2,0-.4.1-.7.3-.7.5,0,0,0,.2.3.3l.2,4.8c0,.2.1.3.3.3Z"/>
    <path class="st0" d="M42.1,25.7c.4,0,.5.2.5.4,0,.1,0,.2-.1.3-.2.2-.4.4-.6.5-.1,0-.2.2-.2.3,0,.2.2.3.3.3,0,0,.1,0,.2,0,.3-.2.5-.4.8-.7.2-.2.3-.5.3-.7,0-.5-.4-.9-1.1-1-.2,0-.5,0-.7,0-.6,0-1.2,0-1.8.3,0,0-.1-.1-.2-.1-.2,0-.3.2-.4.6h0c0,.2.2.3.3.3,0,0,0,0,0,0,.7-.2,1.4-.3,2.1-.4.2,0,.3,0,.5,0Z"/>
    <path class="st0" d="M47.8,26.2c0,.2.1.3.3.3,0,0,0,0,0,0,.1,0,.3-.1.3-.2.2-.5.4-1,.6-1.5,0,0,0-.2,0-.2,0-.2,0-.3-.3-.3-.4,0-.6.1-.6.3,0,0,0,.2.1.2-.1.5-.3.9-.4,1.3,0,0,0,.1,0,.2Z"/>
    <path class="st0" d="M30.8,27.4s0,0-.1,0c-.8,0-1.7.2-2.5.5,0-.2,0-.3,0-.5,0-.6,0-1.1.2-1.7.2,0,.3-.1.3-.2,0-.1-.2-.3-.5-.4,0,0,0,0,0,0-.2,0-.2.2-.3.4-.2.7-.3,1.4-.3,2.1,0,.1,0,.3,0,.4,0,.4.2.6.5.6.1,0,.2,0,.3,0,.8-.3,1.6-.5,2.4-.5.6,0,1.1.3,1.2.9,0,0,0,0,0,0,0,.7-.3,1-1.3,1.4-.7.2-1.4.4-2.1.4-.2,0-.4.2-.4.4,0,0,0,0,0,0,0,.2,0,.4.4.4.1,0,.3,0,.4,0,.7,0,1.3-.2,1.9-.4,1.3-.5,1.8-1.1,1.8-2.1,0-.9-.9-1.7-1.8-1.6Z"/>
    <path class="st0" d="M37.4,28.7c0-1.4.2-2.8.5-4.1,0,0,0,0,0,0,0-.2-.2-.3-.3-.3-.4,0-.6.2-.6.3,0,0,0,.2.2.2-.3,1.3-.5,2.6-.5,3.9,0,.9.1,1.8.4,2.6.1.3.2.3.4.3.2,0,.4-.2.4-.4,0,0,0-.1,0-.2-.3-.7-.4-1.5-.4-2.3Z"/>
    <path class="st0" d="M49.1,25.6c0,.2.2.3.3.3,0,0,0,0,0,0,.2,0,.3-.1.4-.3,0-.4.1-.8.1-1.2,0-.2-.1-.4-.3-.4,0,0,0,0,0,0-.3,0-.5.2-.5.3,0,0,0,.1.1.2,0,.4,0,.7-.2,1,0,0,0,0,0,0Z"/>
    <path class="st0" d="M42.9,30c0,0-.2,0-.3,0-.3.1-.7.2-1.1.2-.3,0-.5,0-.8-.1-.6-.1-1-.6-.9-1.2h0c0-.4-.2-.5-.3-.5-.3,0-.4.2-.4.4,0,.8.5,1.5,1.2,1.8.4.2.8.2,1.3.2.5,0,.9,0,1.3-.2.2,0,.3-.2.3-.4,0,0,0-.2,0-.3,0,0-.1-.1-.2-.1Z"/>
  </g>
</svg>