<?xml version="1.0" encoding="UTF-8"?>
<svg id="_レイヤー_1" data-name="レイヤー_1" xmlns="http://www.w3.org/2000/svg" version="1.1" viewBox="0 0 81.6 39.9">
  <!-- Generator: Adobe Illustrator 29.1.0, SVG Export Plug-In . SVG Version: 2.1.0 Build 142)  -->
  <defs>
    <style>
      .st0 {
        fill: #fff;
      }

      .st1 {
        fill: #fc7e00;
      }
    </style>
  </defs>
  <polygon class="st1" points="81.1 39.9 81.6 16.1 78.6 16.1 79.4 0 1.2 .7 0 24.3 19.6 24.1 19.3 38.6 81.1 39.9"/>
  <path class="st0" d="M12.5,11.2c0-.2,0-.4-.3-.4,0,0,0,0,0,0-.3,0-.5.2-.5.3s0,.1.1.2v.3s-1.3.1-1.3.1c0-.1-.1-.2-.2-.2-.1,0-.3.2-.4.5,0,0,0,0,0,0,0,.1.2.2.4.2h1.5c0-.1,0,.4,0,.4,0,0,0,0-.1-.1,0,0-.2,0-.3,0-.2,0-.4,0-.4.2,0,0,0,.1,0,.2-.3.5-.7.9-1.1,1.2-.1,0-.2.2-.2.3,0,0,0,.2.1.2,0,0,.1,0,.2,0,.1,0,.3,0,.4-.2.5-.5.9-1,1.3-1.6,0,0,0-.1,0-.2v2.1c0,.2,0,.3.2.4,0,0,0,0,0,0,.2,0,.3,0,.3-.2,0,0,0,0,0,0v-1.7c.3.2.5.4.7.6,0,0,.2.1.3.1,0,0,.2,0,.2,0,0,0,.1-.2.1-.3,0-.1,0-.3-.2-.3-.4-.2-.8-.4-1.1-.7v-.4s1.2,0,1.2,0c.2,0,.3-.1.3-.3,0,0,0,0,0,0,0-.2,0-.3-.3-.3,0,0,0,0,0,0h0s-1.1,0-1.1,0v-.4ZM15.2,10.1c0-.6,0-1.2,0-1.7,0-.2,0-.3-.2-.3,0,0,0,0-.1,0-.3.1-.5.3-.5.4s0,.1.2.2c0,.5,0,1.1,0,1.7s0,1.4-.1,1.9c0,.9-.3,1.7-.7,2.5,0,0,0,.1,0,.2,0,.1,0,.3.2.3,0,0,0,0,.1,0,.2,0,.3-.1.4-.3.4-.8.6-1.6.7-2.5,0-.5,0-1.1.1-1.8l3.1-.2c.2,0,.3-.1.3-.3,0,0,0,0,0,0,0-.2-.1-.3-.3-.3,0,0,0,0,0,0h0s-3,.2-3,.2ZM10.2,10.2c0,0-.1-.1-.2-.1-.1,0-.2.1-.3.5,0,0,0,0,0,0,0,.1.2.2.4.2l4-.3c.2,0,.3-.1.3-.3,0,0,0,0,0,0,0-.1-.1-.3-.3-.3,0,0,0,0,0,0h0s-.8,0-.8,0c.1-.3.3-.6.4-.9,0,0,0-.2,0-.3,0-.1,0-.3-.2-.3h0c-.3,0-.6,0-.6.2,0,0,0,.1,0,.2,0,.4-.2.7-.4,1h-.8s0,0,0-.1c0,0,0-.1,0-.2,0-.3-.1-.5-.3-.8,0-.1-.2-.2-.3-.2,0,0-.1,0-.2,0-.2.1-.3.3-.3.4s0,.1.2.1c0,.2.1.4.2.7,0,0,0,.1,0,.2h-1ZM16.5,15.3c0,.3.1.3.3.3s.3,0,.3-.3v-4.1c0-.2,0-.4-.1-.4,0,0,0,0,0,0-.4.1-.5.2-.5.3s0,.1.2.2v3.9ZM17.1,7.3c-.5.3-1,.5-1.5.7-.2,0-.2.2-.2.3,0,.2,0,.3.2.3,0,0,0,0,0,0,0,0,.1,0,.2,0,.7-.2,1.3-.4,1.9-.7.1,0,.2-.2.2-.3,0-.1,0-.2-.1-.3-.2,0-.3-.2-.5-.2-.1,0-.2,0-.2.2,0,0,0,0,0,.1ZM10.6,8.1c0,0-.1-.1-.2-.1-.1,0-.2.2-.3.5,0,0,0,0,0,0,0,.1.1.2.3.2h0s3.3-.3,3.3-.3c.2,0,.3-.1.3-.3,0-.2,0-.3-.3-.3,0,0,0,0,0,0h0s-1.3.1-1.3.1c0-.3,0-.6,0-.8,0,0,.1-.1.1-.2,0-.2-.5-.3-.6-.3s-.3,0-.3.2c0,0,0,.1,0,.2,0,.3.1.6.2.9h-1.2ZM22.1,8.3c0,.3,0,.5,0,.8,0,.4,0,1.2-.2,2.1,0,.6,0,1.1-.1,1.6s0,.3,0,.5c0,1,.9,1.8,1.9,1.8,0,0,.1,0,.2,0,.9,0,1.7-.4,2.3-1.1.5-.6.8-1.4,1-2.1,0,0,0-.1,0-.2,0-.2,0-.3-.2-.4,0,0,0,0-.1,0-.2,0-.3,0-.3.2-.1.7-.4,1.4-.9,2-.4.5-1,.8-1.7.8-.7,0-1.2-.4-1.3-1.1,0,0,0,0,0,0,0-.2,0-.4,0-.6,0-.4,0-.9,0-1.5,0-.8.2-1.7.2-2.3,0-.3,0-.6,0-.8,0-.2-.2-.3-.3-.3,0,0-.1,0-.2,0-.3.1-.5.3-.5.4,0,.1,0,.2.2.2ZM35.7,8.7c-.1,0-.2.2-.2.3,0,0,0,.2.1.2.4.4.8,1,.9,1.6,0,.4.1.9.1,1.3,0,.3,0,.6,0,.9,0,0,0,0,0,0,0,.3.2.4.4.4s.3-.2.4-.5c0-.3,0-.6,0-.8,0-.6,0-1.2-.3-1.8-.2-.6-.5-1.2-.9-1.6-.1,0-.2-.2-.4-.2,0,0,0,0-.1,0ZM31,9.1c-.1.6-.2,1.2-.2,1.8,0,.7,0,1.5.2,2.2.3,1.2.9,1.8,1.7,1.8.9,0,1.6-.7,1.8-1.6,0,0,0-.2,0-.3,0-.1,0-.2-.2-.3,0,0-.1,0-.2,0-.1,0-.3,0-.3.3-.3.8-.7,1.1-1.1,1.1s-.7-.3-.9-1.1c-.1-.7-.2-1.3-.2-2,0-.6,0-1.1.2-1.7,0,0,0-.1,0-.2,0-.2,0-.3-.1-.4,0-.1-.2-.2-.4-.2,0,0-.1,0-.2,0-.1,0-.3.2-.3.3,0,.1,0,.2.2.3ZM40.6,11.3c0,0-.2-.2-.3-.2-.2,0-.4.2-.6.5,0,0,0,0,0,.1,0,.2.2.3.6.3h0s7.6-.2,7.6-.2c.2,0,.4-.2.3-.4,0,0,0,0,0,0,0-.2-.1-.4-.3-.4,0,0,0,0,0,0l-7.3.2ZM53.8,12.9c0,0,0,.1-.2.1-.1,0-.3,0-.4,0,0,0,0,0-.1,0-.2,0-.3,0-.3.3,0,0,0,0,0,0,0,.1,0,.2.3.3.3.1.6.2.8.2.5,0,.7-.2.7-.6v-1.8s3.6-.2,3.6-.2c.2,0,.3-.1.3-.3,0,0,0,0,0,0,0-.2-.1-.3-.3-.3,0,0,0,0,0,0h0s-3.6.2-3.6.2v-2.9c0-.2,0-.4-.2-.4,0,0,0,0,0,0-.3,0-.6.2-.6.3s0,.2.2.2v2.7c0,0-1.4,0-1.4,0v-1.7c0-.3-.1-.4-.3-.4,0,0,0,0,0,0-.4,0-.6.2-.6.4s0,.1.2.2v1.6c0,0-1.3,0-1.3,0,0-.1-.1-.2-.2-.2-.1,0-.3.2-.4.5,0,0,0,0,0,0,0,.1.1.2.3.2h0s3.7-.2,3.7-.2v1.5ZM55.4,8.9c0,0-.1-.1-.2-.1-.1,0-.3.2-.4.5,0,0,0,0,0,0,0,.2.2.3.3.3h0s1.6,0,1.6,0c.2,0,.3-.1.3-.3,0,0,0,0,0,0,0-.2,0-.3-.3-.3h0s-1.3,0-1.3,0ZM51.8,12c-.3.5-.6,1-1.1,1.3-.1,0-.2.2-.2.3,0,0,0,.2.1.2,0,0,.2.1.3.1.1,0,.3,0,.4-.2.5-.5,1-1,1.4-1.7,0,0,0-.2,0-.3,0-.1,0-.2-.2-.3,0,0,0,0,0,0,0,0-.1,0-.2,0-.3,0-.5,0-.5.2,0,0,0,.1,0,.2ZM56.7,12c0,0,0-.1,0-.2,0-.1-.1-.2-.4-.2-.1,0-.2,0-.4,0-.1,0-.2,0-.2.2,0,.1,0,.2.1.3.4.7.9,1.3,1.5,1.9.1,0,.2.1.4.2.1,0,.2,0,.3-.1,0,0,.1-.2.1-.2,0-.2-.1-.3-.3-.4-.5-.4-.9-.9-1.3-1.4ZM55.4,13.2c-.4.7-2.6,2-4.1,2.4-.2,0-.4.2-.4.4,0,0,0,0,0,.1,0,.2.2.3.3.3.1,0,.2,0,.3,0,1.8-.5,3.4-1.5,4.7-2.8,0,0,0-.1,0-.2,0-.1,0-.2-.3-.3-.2,0-.3-.1-.5-.1-.1,0-.2,0-.2.2,0,0,0,.1,0,.2ZM63.7,8.7c-.2.4-.4.8-.6,1.2-.2,0-.4,0-.6,0-.5,0-.9,0-1.4-.1,0-.1-.1-.2-.2-.2s-.3.1-.5.4c0,0,0,0,0,0,0,.1.1.2.3.2.6.1,1.1.2,1.7.2h.3c-.2.3-.4.6-.6.8,0,0-.1.2-.1.3,0,0,0,.2,0,.3.1.2.3.2.6.2.4,0,.8.1,1.1.4-.6.3-1.1.6-1.6,1.1-.3.2-.5.6-.5,1,0,.5.5,1,1.4,1.1.5,0,.9.1,1.4.1.4,0,.9,0,1.3,0,.3,0,.6-.1.8-.3,0,0,.1-.2.1-.2,0-.1,0-.2-.1-.3,0,0-.1-.1-.2-.1,0,0-.2,0-.3,0-.2,0-.3.1-.5.1-.4,0-.8,0-1.2,0-.4,0-.8,0-1.2-.1-.5,0-.7-.3-.7-.6,0-.1,0-.3.2-.4.4-.4,1-.8,1.5-1,0,.2.1.4.2.7,0,.2.1.3.3.3,0,0,0,0,0,0,.2,0,.3-.1.3-.3,0,0,0,0,0,0h0c0-.4-.1-.7-.2-.9.7-.3,1.3-.5,2-.6.2,0,.3-.1.3-.3,0,0,0-.1,0-.2-.1-.2-.3-.3-.5-.4-.1,0-.2,0-.2.2,0,0,0,0,0,0,0,0,0,0,0,0-.6.2-1.2.4-1.8.7-.4-.4-1-.6-1.6-.7.2-.3.5-.7.7-1.1,1.2,0,2.5-.2,3.7-.4.3,0,.4-.2.4-.3h0c0-.2-.2-.3-.3-.3,0,0,0,0-.1,0-1.1.2-2.2.3-3.3.4.2-.4.4-.8.5-1,0-.1,0-.2,0-.4,0-.2-.1-.3-.4-.3-.4,0-.6.1-.6.3,0,0,0,.1.1.2ZM70.4,14.8s0-.1,0-.2c0-.1,0-.2-.2-.2-.2,0-.3,0-.4.1,0,0-.1.1-.2.2,0,.1,0,.2.1.3.4.5.8,1,1.2,1.5,0,.1.2.2.3.2,0,0,.2,0,.2,0,0,0,.2-.2.2-.3,0-.1,0-.2-.1-.3-.3-.5-.7-.9-1.1-1.3Z"/>
  <path class="st0" d="M32.3,29.7c0-.2-.1-.4-.3-.4,0,0,0,0,0,0-.1,0-.2,0-.3,0-.5.2-1,.2-1.5.2-.4,0-.8,0-1.2-.2-.7-.3-1-.7-1-1.3h0c0-.4-.1-.5-.4-.5s-.4.1-.4.5c0,.8.5,1.6,1.2,1.9.5.2,1.1.3,1.7.3.6,0,1.2,0,1.8-.3.2,0,.3-.2.3-.4ZM28,24c0,0-.1-.1-.2-.1-.2,0-.4.2-.5.6h0c0,.2.1.3.3.3,0,0,0,0,.1,0,.8-.2,1.5-.3,2.3-.3.4,0,.7,0,1.1.1.4,0,.6.3.6.4,0,.1,0,.2-.1.3-.2.2-.4.4-.6.6-.1,0-.2.2-.2.3,0,.2.2.3.3.3.1,0,.2,0,.3-.1.3-.2.5-.4.8-.7.2-.2.3-.5.3-.8,0-.5-.4-.9-1.1-1.1-.4,0-.7,0-1.1-.1-.8,0-1.5,0-2.3.2ZM42.3,30c0-.2-.1-.4-.3-.4,0,0,0,0,0,0-.1,0-.2,0-.3,0-.5.2-1,.2-1.5.2-.4,0-.8,0-1.2-.2-.7-.3-1-.7-1-1.3h0c0-.4-.1-.5-.4-.5s-.4.1-.4.5c0,.8.5,1.6,1.2,1.9.5.2,1.1.3,1.7.3.6,0,1.2,0,1.8-.3.2,0,.3-.2.3-.4ZM38,24.2c0,0-.1-.1-.2-.1-.2,0-.4.2-.5.6h0c0,.2.1.3.3.3,0,0,0,0,.1,0,.8-.2,1.5-.3,2.3-.3.4,0,.7,0,1.1.1.4,0,.6.3.6.4,0,.1,0,.2-.1.3-.2.2-.4.4-.6.6-.1,0-.2.2-.2.3,0,.2.2.3.3.3.1,0,.2,0,.3-.1.3-.2.5-.4.8-.7.2-.2.3-.5.3-.8,0-.5-.4-.9-1.1-1.1-.4,0-.7,0-1.1-.1-.8,0-1.5,0-2.3.2ZM52.5,25c0,0,0-.1,0-.2,0-.2-.1-.3-.4-.3,0,0-.1,0-.2,0-.1,0-.3.1-.3.3,0,0,0,.1,0,.2.7,1.1,1.2,2.3,1.4,3.5,0,.3.2.4.4.4.2,0,.4-.1.4-.3,0,0,0,0,0,0,0,0,0-.1,0-.2-.2-1.2-.7-2.4-1.3-3.4ZM48.4,24.2c0,.1,0,.2,0,.4,0,.4,0,.7-.1,1.1-.6,0-1.1.2-1.5.3,0,0-.1-.1-.2-.1-.1,0-.3.2-.4.5,0,0,0,0,0,0,0,.1,0,.3.2.3,0,0,0,0,0,0,0,0,.1,0,.2,0,.4,0,1-.2,1.5-.3-.4,1.3-1,2.6-1.9,3.7-.1.1-.2.2-.2.4,0,.2.2.4.4.4.1,0,.2,0,.3-.2,1-1.3,1.8-2.8,2.2-4.4.2,0,.5,0,.7,0,.5,0,.7.2.7.6,0,.2,0,.4,0,.6,0,.8-.2,1.7-.4,2.4-.1.4-.3.5-.5.5,0,0-.2,0-.3,0-.1,0-.3-.2-.4-.3,0,0-.2-.1-.3-.1-.2,0-.3.2-.3.4,0,.1,0,.2.1.3.2.2.4.4.6.5.2,0,.4.1.6.2.4,0,.8-.2,1.1-1,.3-.9.4-1.8.5-2.7,0-.3,0-.5,0-.8,0-.7-.6-1.2-1.3-1.1,0,0,0,0,0,0-.2,0-.4,0-.6,0,0-.4.1-.8.2-1.3,0-.1,0-.2,0-.3,0-.2-.1-.4-.3-.4h0c-.4,0-.6.2-.6.4,0,0,0,.2.2.2ZM58.2,27.8c0-.2,0-.3,0-.5,0-.6.1-1.1.3-1.7.2,0,.3-.1.3-.2s-.2-.3-.5-.4c0,0,0,0,0,0-.2,0-.2.2-.3.4-.2.7-.3,1.4-.3,2.1,0,.1,0,.3,0,.4,0,.4.2.6.4.6.1,0,.2,0,.3,0,.8-.3,1.6-.5,2.4-.5.6,0,1.1.3,1.1.9,0,0,0,0,0,0,0,.7-.3,1-1.3,1.4-.7.2-1.4.3-2.1.4-.2,0-.4.2-.4.4,0,0,0,0,0,0,0,.2,0,.4.4.4.1,0,.3,0,.4,0,.7,0,1.3-.2,1.9-.4,1.3-.4,1.8-1.1,1.8-2.1,0-1-.9-1.7-1.8-1.6,0,0,0,0-.1,0-.8,0-1.7.2-2.5.4ZM60.2,23.8c0-.3-.3-.3-.6,0,0,0-.1.1-.1.2,0,.1.1.2.2.3.4.1.8.4,1.2.6,0,0,.1.1.1.2s0,0-.1.1c-.1,0-.3.2-.5.2-.1,0-.2.1-.2.3,0,.2.1.3.3.3,0,0,0,0,0,0,0,0,.1,0,.2,0,.2,0,.4-.2.6-.3.3,0,.4-.3.5-.6,0-.3-.2-.5-.4-.6-.4-.3-.8-.5-1.2-.7h0ZM69.8,30.5c-.4,0-.7.3-.7.7,0,.4.3.7.7.7.4,0,.7-.3.7-.7,0-.4-.3-.7-.7-.7ZM69.6,29.3c0,.2,0,.3.3.3,0,0,0,0,0,0,.2,0,.3,0,.3-.3,0,0,0,0,0,0l.3-4.9h0c0-.4,0-.6-.3-.6,0,0-.1,0-.2,0-.4.1-.7.3-.7.4s0,.2.3.3v4.8Z"/>
</svg>