<?xml version="1.0" encoding="UTF-8"?>
<svg id="_レイヤー_1" data-name="レイヤー_1" xmlns="http://www.w3.org/2000/svg" version="1.1" viewBox="0 0 190.7 72.6">
  <!-- Generator: Adobe Illustrator 29.1.0, SVG Export Plug-In . SVG Version: 2.1.0 Build 142)  -->
  <defs>
    <style>
      .st0 {
        fill: #fff;
      }

      .st1 {
        fill: #fc7e00;
      }
    </style>
  </defs>
  <g id="_グループ_19040" data-name="グループ_19040">
    <polygon class="st1" points="153.4 27.6 153.4 0 0 0 0 45 54.8 45 54.8 72.6 190.7 72.6 190.7 27.6 153.4 27.6"/>
    <g>
      <path class="st0" d="M93.2,24c-.5-2.4-1.4-4.7-2.7-6.8,0-.1.1-.2.1-.4,0-.3-.3-.5-.8-.5-.1,0-.3,0-.4,0-.2,0-.6.3-.6.6,0,.1,0,.2.1.3,1.4,2.1,2.4,4.5,2.9,7,0,.6.4.8.8.8.4,0,.7-.3.7-.7,0,0,0,0,0-.1,0-.1,0-.2,0-.3Z"/>
      <path class="st0" d="M27.9,21c.4,0,.7-.3.7-.7,0,0,0,0,0,0,0-.3-.2-.6-.8-.6h-.2s-4.3.4-4.3.4c0-.1-.2-.2-.4-.2-.2,0-.5.3-.7.9,0,0,0,.1,0,.2,0,.3.4.5.9.5l4.9-.4Z"/>
      <path class="st0" d="M111.2,22.1c0,0-.2,0-.3,0-.3,0-.6.2-.7.5-.2,1.5-.8,2.9-1.7,4.1-.8,1-2,1.6-3.3,1.7-1.3.2-2.5-.7-2.7-2,0,0,0-.1,0-.2,0-.4,0-.8,0-1.2,0-.9,0-1.8.1-3,.1-1.7.3-3.4.3-4.6,0-.6,0-1.1-.2-1.7,0-.3-.3-.6-.7-.6-.1,0-.2,0-.3,0-.6.2-.9.5-.9.8,0,.2.2.4.4.4,0,.5.1,1,.1,1.5,0,.9-.1,2.5-.3,4.2,0,1.2-.1,2.2-.1,3.1,0,.4,0,.7,0,1,.2,2.6,2.2,3.5,4.2,3.5,1.8,0,3.4-.8,4.5-2.2.9-1.3,1.6-2.7,1.9-4.3,0-.1,0-.2,0-.3,0-.4-.2-.7-.5-.8Z"/>
      <path class="st0" d="M30,22.5s0,0,0,0c-.3,0-.6.1-.8.4l-8.2.6c-.1-.2-.3-.3-.4-.3-.3,0-.5.3-.8,1.1,0,0,0,.1,0,.2,0,.3.4.5.9.5l8.1-.6-3.8,5.8c-.1.2-.2.4-.2.6,0,.4.4.7.8.7.3,0,.5-.2.7-.4l4.6-6.9c.1-.2.2-.4.2-.7,0-.5-.4-.8-.9-.8Z"/>
      <path class="st0" d="M51.7,16.8h0c0,0-.2,0-.2,0-2.1.4-4.3.7-6.5.8.5-.8.8-1.5,1-2,.1-.2.2-.5.2-.7,0-.4-.3-.6-.7-.6-.7,0-1.1.3-1.1.6,0,.2.1.3.2.4-.3.8-.7,1.6-1.1,2.4-.4,0-.8,0-1.1,0-.9,0-1.8,0-2.7-.2,0-.3-.2-.4-.4-.4-.3,0-.6.3-.9.9,0,0,0,.1,0,.2,0,.2.3.4.6.4,1.1.2,2.3.3,3.4.3h.5c-.4.6-.8,1.2-1.2,1.7-.2.2-.2.4-.3.7,0,.2,0,.4.2.5.2.3.6.4,1.2.4.8,0,1.6.2,2.2.7-1.2.6-2.2,1.3-3.2,2.2-.6.5-.9,1.2-.9,2,0,1.1,1,1.9,2.8,2.2.9.1,1.8.2,2.7.2.9,0,1.7,0,2.6-.1.6,0,1.2-.2,1.7-.6.1-.1.2-.3.2-.5,0-.2-.1-.4-.3-.6-.1-.1-.3-.2-.4-.2-.2,0-.3,0-.5.2-.3.2-.7.3-1.1.3-.8.1-1.6.2-2.4.2-.8,0-1.6,0-2.3-.2-1-.2-1.5-.7-1.5-1.2,0-.3.1-.5.3-.7.8-.9,1.9-1.6,3-2.2.2.4.3.9.4,1.3,0,.4.3.6.6.6,0,0,0,0,0,0,.3,0,.6-.2.7-.6,0,0,0,0,0,0h0c0-.7-.2-1.3-.5-1.9,1.3-.5,2.7-1,4-1.4.3,0,.5-.3.6-.6,0-.1,0-.2-.1-.3-.3-.4-.6-.6-1.1-.7-.2,0-.5.2-.5.4,0,0,0,0,0,0,0,0,0,0,0,.1-1.3.4-2.5.9-3.7,1.5-.9-.8-2-1.2-3.2-1.3.4-.6.9-1.4,1.4-2.2,2.5-.1,5-.4,7.4-.9.5,0,.7-.3.7-.6h0c0-.4-.3-.7-.6-.6Z"/>
      <path class="st0" d="M84.8,18.4s0,0,0,0c-.3,0-.8,0-1.2,0,.2-.8.3-1.7.3-2.6,0-.2,0-.4,0-.6,0-.4-.3-.7-.6-.7h-.1c-.8.1-1.2.5-1.2.8,0,.2.1.3.3.4,0,.2,0,.5,0,.7,0,.8,0,1.5-.2,2.2-1.1.2-2.2.4-2.9.6,0-.2-.2-.3-.4-.3-.3,0-.7.4-.8,1,0,0,0,.1,0,.2,0,.3.2.5.4.5,0,0,0,0,.1,0,.1,0,.2,0,.3,0,.8-.2,1.9-.4,3-.6-.6,2.7-1.9,5.2-3.6,7.4-.2.2-.4.5-.4.8,0,.4.3.7.7.8.3,0,.5-.1.6-.3,2-2.6,3.4-5.7,4.1-8.9.5,0,.9-.1,1.4-.1.9,0,1.4.3,1.5,1.2,0,.4,0,.8,0,1.2,0,1.7-.2,3.3-.7,4.9-.3.7-.6,1-.9,1-.2,0-.4,0-.5-.1-.3-.2-.6-.4-.8-.6-.1-.2-.4-.3-.6-.3-.4,0-.7.3-.7.7,0,.2.1.5.3.6.4.4.8.7,1.3,1,.4.2.8.3,1.2.3.8,0,1.6-.5,2.2-2,.5-1.7.8-3.5.8-5.3,0-.5,0-1,0-1.6-.1-1.3-1.3-2.3-2.7-2.2Z"/>
      <path class="st0" d="M72.2,29.5c0-.3-.1-.5-.4-.6l.5-4v-.3c0-.7-.4-1-.8-1-.3,0-.6.2-.7.4l-2.3.2v-3.5s5.2-.4,5.2-.4c.4,0,.7-.3.7-.7,0,0,0,0,0-.1,0-.3-.3-.6-.7-.6h0s-5,.4-5,.4v-2c0-.4-.2-.7-.5-.7,0,0-.1,0-.2,0-.6.1-1.1.4-1.1.7,0,.1,0,.3.4.4v1.7s-4.4.4-4.4.4c0-.2-.2-.3-.3-.3-.3,0-.6.4-.8,1,0,0,0,.1,0,.2,0,.2.3.4.7.4.1,0,.3,0,.4,0l4.6-.4v3.5s-.8,0-.8,0c0-.1-.2-.2-.3-.2-.2,0-.5.3-.7.9,0,0,0,0,0,.1,0,.3.3.5.7.5l4.8-.4-.3,3.6-5.2.3-.4-4.2c0-.5-.3-.8-.6-.8,0,0-.1,0-.2,0-.7.3-1,.6-1,.9,0,.2.2.4.4.4l.5,4.9c0,.6.3.8.7.8h0c.3,0,.6-.2.7-.6,0,0,0,0,0,0h0c0,0,6.1-.3,6.1-.3.5,0,.7-.3.7-.6Z"/>
      <path class="st0" d="M60.4,21.7c-.9-.3-1.7-.8-2.4-1.5,0,0,0-.2,0-.3,0-.2-.1-.3-.3-.4,0,0,0,0,0,0-.4,0-.7.2-1,.4-.1,0-.2.2-.2.4,0,.3.2.6.5.8.9.8,2,1.4,3.1,1.8-.6,1.8-1.4,3.6-2.5,5.2-.1,0-.2,0-.3,0-.3,0-.4.2-.4.4,0,.5.2.9.5,1.3,0,.2.3.3.5.3.2,0,.5-.2.7-.6,1.2-2,2.1-4.1,2.8-6.3,0-.2.1-.4.1-.6,0-.6-.4-.8-1.1-1.1Z"/>
      <path class="st0" d="M33.8,21.2c-2.8-1.9-5.4-4.2-7.7-6.7,0-.1.1-.3.1-.5,0-.3-.2-.6-.5-.6-.1,0-.3,0-.4,0-.7,0-1.1.2-1.1.5,0,.1,0,.3.2.4-1,2.2-4.4,5.9-7.1,7.7-.2.1-.4.4-.4.6,0,.2.1.4.3.5.1.1.3.2.4.2.3,0,.6-.1.9-.4,2.7-2,5-4.5,6.9-7.3,2.2,2.5,4.7,4.8,7.3,6.9.2.2.5.3.8.4.2,0,.4-.1.6-.3.2-.1.3-.3.3-.6,0-.3-.2-.5-.6-.8Z"/>
      <path class="st0" d="M63.8,17.2c.1,0,.2,0,.3,0,2.3-.4,4.6-1.1,6.8-1.9.3-.1.5-.4.5-.7,0-.2,0-.3-.2-.4-.3-.3-.7-.4-1.2-.5-.3,0-.4.1-.4.4,0,0,0,.1,0,.2-1.9.8-3.8,1.4-5.9,1.8-.3,0-.6.3-.6.6h0c0,0,0,.1,0,.2,0,.3.2.5.6.5Z"/>
      <path class="st0" d="M129.9,28.4c0-.1,0-.2,0-.3-.1-.2-.3-.4-.6-.4,0,0-.2,0-.3,0-.5.2-1,.2-1.4.2-1.7.1-3.2-1.2-3.3-2.9,0-.2,0-.3,0-.5,0-1.9,1.1-4.9,5.7-6.8.7-.1,1.4-.2,1.9-.3.4,0,.7-.3.7-.7h0c0-.5-.3-.7-.7-.7,0,0-.1,0-.2,0-3.5.8-7,1.3-10.6,1.3-.6,0-1.1,0-1.6,0,0-.3-.2-.5-.4-.5-.3,0-.7.3-.9.9,0,0,0,.2,0,.2,0,.4.6.7,1.2.7.3,0,.5,0,.8,0,2.2,0,4.4-.2,6.6-.5-3.1,1.9-4,4.6-4,6.4-.2,2.5,1.7,4.7,4.2,4.8.2,0,.4,0,.6,0,.6,0,1.3,0,1.9-.3.3-.1.5-.4.5-.7Z"/>
      <path class="st0" d="M60.1,18.1c.2.1.4.2.6.2.2,0,.5-.1.6-.3,0-.1.1-.3.1-.4,0-.2-.2-.5-.6-.7-.7-.3-1.3-.8-1.8-1.3,0,0,0-.2,0-.3,0-.2-.1-.4-.4-.4-.3,0-.6.1-.9.3-.2,0-.3.3-.3.5,0,.3.2.6.4.8.7.7,1.4,1.2,2.2,1.7Z"/>
      <path class="st0" d="M137.5,47.7s0,0,0,0c.5,0,.6-.2.7-.7.2-.8.3-1.6.3-2.4,0-.5-.2-.7-.5-.7,0,0,0,0-.1,0-.6.1-.9.4-.9.6,0,.1,0,.2.2.3,0,.7-.1,1.4-.3,2.1,0,0,0,.1,0,.2,0,.3.3.6.7.6Z"/>
      <path class="st0" d="M177.6,44.9l.3,9.5c0,.3.2.6.5.6,0,0,0,0,0,0,.3,0,.6-.2.6-.5,0,0,0,0,0,0l.4-9.8v-.2c0-.6-.1-1.1-.7-1.1-.1,0-.3,0-.4,0-.9.2-1.3.6-1.3.9,0,.2.2.4.5.5Z"/>
      <path class="st0" d="M139.4,45.3h0s6-.7,6-.7c-.1.3-.3.6-.4.9,0,.1-.1.2-.1.4,0,.2.1.4.3.4,0,0,.2,0,.3,0,.2,0,.4-.2.6-.4.3-.5.6-1,.9-1.6,0-.1.1-.3.1-.4,0-.4-.3-.7-.7-.7,0,0,0,0,0,0-.2,0-.4,0-.5.2l-5.9.6c0-.1-.2-.2-.3-.3-.2,0-.5.3-.8.9,0,0,0,0,0,.1,0,.2.3.4.6.4Z"/>
      <path class="st0" d="M97.9,44.8c.9.3,1.7.7,2.4,1.2.2.2.3.3.3.4,0,.1,0,.2-.2.3-.3.2-.6.3-.9.4-.3,0-.4.3-.4.6,0,.3.3.5.6.5,0,0,0,0,0,0,.1,0,.3,0,.4,0,.4-.1.8-.3,1.2-.5.5-.2.8-.6.9-1.2,0-.5-.4-1-.8-1.3-.7-.6-1.6-1-2.4-1.3h0c0-.6-.6-.7-1.3,0-.1,0-.2.2-.2.4,0,.2.2.4.5.5Z"/>
      <path class="st0" d="M134.8,48.9s0,0,0,0c.3,0,.5-.2.6-.5.4-1,.8-2,1.1-3,0-.1,0-.3,0-.5,0-.3-.2-.6-.5-.6-.8,0-1.2.3-1.2.6,0,.2,0,.3.2.4-.2.9-.5,1.8-.8,2.7,0,.1,0,.2,0,.4,0,.3.3.5.6.5Z"/>
      <path class="st0" d="M124.5,55.9c-.2,0-.4,0-.6.1-.7.2-1.4.4-2.2.4-.5,0-1.1,0-1.6-.2-1.1-.2-1.9-1.2-1.9-2.3v-.2c0-.6-.3-.7-.7-.7-.5,0-.7.4-.7.9,0,1.6.9,3,2.4,3.6.8.3,1.7.5,2.6.5.9,0,1.8-.2,2.7-.5.3,0,.6-.4.6-.7,0-.2,0-.4-.2-.5-.1-.2-.3-.2-.5-.2Z"/>
      <path class="st0" d="M146.9,55.6s0,0-.1,0h-.1l-4.1.3v-1.6s2.2-.2,2.2-.2c0,.3.2.5.5.5,0,0,0,0,0,0,.3,0,.6-.2.7-.5,0,0,0,0,0-.1l.3-4.8h0c0-.6-.3-.9-.7-.9-.2,0-.5.1-.6.3l-2.4.3v-1.1s2.2-.2,2.2-.2c.5,0,.6-.3.6-.6,0-.3-.2-.5-.5-.5,0,0,0,0,0,0h0s-2.2.2-2.2.2v-.7c0-.4-.2-.6-.5-.6,0,0,0,0-.1,0-.5.2-.8.4-.8.6,0,.1,0,.3.2.3v.5s-1.8.2-1.8.2c0-.1-.2-.2-.3-.2-.3,0-.6.4-.8.9,0,0,0,.1,0,.2,0,.3.3.4.7.4l2.3-.2v1.1s-1.1.1-1.1.1c0-.1-.2-.2-.3-.2-.3,0-.5.3-.6.8h0c0,.3.2.5.5.5,0,0,0,0,0,0h1.6c0-.1,0,1,0,1l-2.2.2v-1.6c-.2-.4-.3-.7-.6-.7,0,0-.1,0-.2,0-.6.2-.9.5-.9.7,0,.1,0,.2.3.3l.4,4.4c0,.5.3.6.6.6.3,0,.6-.1.6-.5h0c0,0,2-.2,2-.2v1.7s-3.7.3-3.7.3c-.1-.2-.3-.3-.4-.3-.3,0-.5.3-.8,1,0,0,0,0,0,.1,0,.3.3.4.7.4l4.1-.3v2.7c0,.5.3.7.7.7.4,0,.7-.2.7-.7v-2.8s4.2-.3,4.2-.3c.3,0,.6-.3.6-.6,0,0,0,0,0,0,0-.3-.2-.6-.5-.6ZM141.4,53.3h-2.1c0,.1,0-1,0-1l2.2-.2v1.2ZM142.6,53.2v-1.2s1.3-.1,1.3-.1c.4,0,.6-.2.6-.5,0-.3-.2-.5-.4-.5,0,0,0,0,0,0h-1.4c0,.1,0-1,0-1l2.4-.2v3.4c-.1,0-2.4.2-2.4.2Z"/>
      <path class="st0" d="M137.4,54.8c0-.1,0-.2,0-.3,0-.1-.2-.2-.4-.2-.1,0-.3,0-.4.2-.4.3-1.1.7-1.8,1.1v-4.7s1.5-.2,1.5-.2c.4,0,.6-.3.6-.7,0,0,0,0,0,0,0-.3-.2-.5-.6-.5h-.2s-2.3.2-2.3.2v-5.8c0-.5-.2-.7-.5-.7,0,0-.1,0-.2,0-.7.2-1,.4-1,.7,0,.2.1.3.4.5v5.5s-2,.2-2,.2c-.1-.2-.3-.3-.4-.3-.3,0-.5.3-.8,1.1,0,0,0,0,0,.1,0,.3.3.4.6.4h.2l3.4-.4v5.2s-.1,0-.1,0c-.3,0-.4.3-.4.6,0,.1,0,.3.1.4.1.2.3.3.5.3.2,0,.4,0,.5-.2,1-.6,2.1-1.4,3-2.1.2-.1.3-.3.3-.5Z"/>
      <path class="st0" d="M162.5,57c-1.7-1.4-5.4-3.9-7.6-5.3,1.9-2,4-3.8,6.2-5.5.6-.3.9-.9,1-1.5,0-.4-.2-.8-.9-.8-.7,0-.9.3-.9.5,0,.1,0,.3.1.4-1.9,1.6-4.8,4.2-6.7,6.1-.5.5-.7.9-.7,1.2,0,0,0,0,0,.1,0,.3.3.5.7.5,0,0,.1,0,.2,0,2.1,1.3,5.9,4.2,7.5,5.5.3.2.5.5.7.8.1.2.3.3.5.2.1,0,.3,0,.4-.1.3-.2.4-.5.5-.8,0-.1,0-.2,0-.3-.2-.4-.5-.8-.9-1Z"/>
      <path class="st0" d="M178.5,56.9c-.8,0-1.4.6-1.4,1.4,0,.8.6,1.4,1.4,1.4.8,0,1.4-.6,1.4-1.4,0-.8-.6-1.4-1.4-1.4Z"/>
      <path class="st0" d="M81,57.7c-3.1-.1-5.4-.9-6.2-2.4-.2-.4-.3-.8-.3-1.2,0-.2,0-.5.2-.7,0-.2.2-.4.2-.6,0-.4-.3-.7-.7-.7,0,0,0,0,0,0-.3,0-.6.2-.7.4-.3.5-.4,1-.4,1.5,0,.7.2,1.3.5,1.9,1,1.8,3.6,3.2,7.4,3.2.7,0,.9-.4.9-.8,0-.4-.2-.7-.8-.8Z"/>
      <path class="st0" d="M132.3,51.7s0,0-.1,0c-.6,0-1,.4-1,.6,0,0,0,.2.2.3-.2,1.8-.9,3.4-1.9,4.8-.1.2-.2.4-.3.6,0,.2.1.4.3.5.1,0,.3.2.4.2.3,0,.6-.2.7-.4,1.2-1.6,1.9-3.6,2.1-5.6,0-.1,0-.2,0-.3,0-.3,0-.7-.4-.7Z"/>
      <path class="st0" d="M100,50.8c-1.7,0-3.4.4-5,1,0-.3,0-.6,0-1,0-1.1.2-2.3.4-3.4.3,0,.5-.3.5-.5,0-.3-.3-.6-1.1-.8,0,0-.1,0-.2,0-.3,0-.5.3-.6.7-.3,1.4-.5,2.9-.6,4.3,0,.3,0,.5,0,.8.1.8.4,1.2.9,1.2.2,0,.5,0,.7-.2,1.5-.7,3.2-1,4.8-1.1,1.1-.1,2.2.6,2.3,1.8,0,0,0,.1,0,.2,0,1.4-.6,2.1-2.5,2.8-1.3.5-2.8.7-4.2.8-.4,0-.7.3-.7.7,0,0,0,0,0,0,0,.5.2.7.8.7.3,0,.6,0,.9,0,1.3-.1,2.6-.4,3.8-.9,2.6-.9,3.5-2.2,3.5-4.2,0-1.5-1.3-3.2-3.9-3.2Z"/>
      <path class="st0" d="M85.3,46.6c0,0-.2,0-.3,0-1.6.4-3.3.7-4.9.8-.3-.9-.7-1.9-1-2.7.1-.1.2-.3.3-.5,0-.3-.3-.6-1.1-.6-.4,0-.8.4-.8.8,0,.3.1.7.3,1,.3.7.6,1.4.9,2.1-2.1.2-4.2.3-5.9.3h-.5c0-.3-.3-.4-.5-.4-.3,0-.7.3-.9,1.1,0,0,0,0,0,.1,0,.3.2.5.9.5.4,0,.7,0,1.1,0,1.9,0,4.1-.1,6.2-.3.3.8.5,1.5.6,1.9.1.4.2.8.2,1.2,0,.2,0,.4-.1.6-.2.3-.4.5-.7.6-.3.2-.5.4-.5.6,0,.4.3.6.6.7,0,0,0,0,0,0,.2,0,.3,0,.5,0,.9-.3,1.6-1.1,1.7-2.1,0-.6-.1-1.3-.3-1.9,0-.3-.2-.8-.5-1.5,1.6-.2,3.1-.4,4.7-.8.5-.1.7-.4.7-.7h0c0-.4-.2-.6-.6-.6Z"/>
      <path class="st0" d="M123.1,46.1c-.5,0-.9-.1-1.4-.1-1.2,0-2.5.2-3.7.6,0-.1-.2-.2-.4-.3-.3,0-.7.4-.9,1.2h0c0,.4.3.6.6.6,0,0,.1,0,.2,0,1.4-.5,2.8-.7,4.3-.7.3,0,.6,0,1,0,.8.1,1.1.4,1.1.8,0,.2-.1.5-.3.6-.3.4-.7.8-1.1,1.1-.2.1-.3.3-.4.6,0,.3.3.6.7.6.2,0,.3,0,.4-.1.6-.4,1.1-.9,1.5-1.4.4-.4.6-.9.6-1.4,0-.9-.8-1.7-2.2-2Z"/>
      <path class="st0" d="M130.3,44.8c-.1,0-.2,0-.3,0-.3.1-.5.4-.6.8,0,.2.1.3.4.4.4.8.6,1.7.8,2.6,0,.3.3.5.6.5.1,0,.2,0,.3,0,.3,0,.4-.3.4-.6,0-.1,0-.3,0-.4-.2-1-.6-1.9-1-2.8-.2-.3-.4-.5-.6-.5Z"/>
      <path class="st0" d="M113.9,44.4c-.8,0-1.2.4-1.2.7,0,.2,0,.3.4.5-.6,2.5-1,5.1-1,7.7,0,1.8.2,3.5.8,5.2.2.6.4.7.7.7.4,0,.8-.3.8-.7,0-.1,0-.3,0-.4-.6-1.5-.8-3.1-.7-4.7,0-2.8.4-5.6,1-8.3,0,0,0,0,0-.1,0-.4-.4-.5-.7-.5Z"/>
    </g>
  </g>
</svg>