<?xml version="1.0" encoding="UTF-8"?>
<svg id="_レイヤー_1" xmlns="http://www.w3.org/2000/svg" version="1.1" viewBox="0 0 251 30.3">
  <!-- Generator: Adobe Illustrator 29.1.0, SVG Export Plug-In . SVG Version: 2.1.0 Build 142)  -->
  <defs>
    <style>
      .st0 {
        fill: #3e3e3e;
      }
    </style>
  </defs>
  <path id="_パス_46413" data-name="パス_46413" class="st0" d="M1.2,28.4c0,.6.4,1.2,1,1.3,0,0,.2,0,.2,0,.6,0,1.1-.3,1.2-.9l14.1-.8v.6c0,.7.6,1.3,1.3,1.3s1.3-.6,1.3-1.3V7.1c0-.9-.6-1.6-1.4-1.8,0,0,0,0-.1,0-.5,0-.9.3-1.2.7l-7.7.8c-.2-.2-.5-.4-.8-.4-.5,0-.9.5-1.4,1.5,0,0,0,.2,0,.3,0,.4.4.8,1.1.8h.1s8.8-.9,8.8-.9v17.8c0,0-14,.8-14,.8V10.4c0-.1,0-.3,0-.4,2.6-2.2,5-4.6,7.1-7.3.2-.2.3-.5.3-.8,0-.5-.3-1-.8-1.1-.3,0-.6,0-.9,0-.8,0-1.8.2-1.8.8,0,.2.2.5.3.6C5.9,4.8,3.4,7.4.6,9.5c-.4.2-.6.6-.6,1,0,.6.5,1.1,1.1,1.1h0s0,16.7,0,16.7ZM6.5,13.5c-.2-.2-.4-.4-.6-.4-.4,0-.9.5-1.4,1.5,0,0,0,.2,0,.3,0,.4.6.8,1.3.7l9.9-.8c.7,0,1.1-.5,1.1-1h0c0-.7-.5-1.1-1-1.1,0,0,0,0,0,0h-.2s-9,.8-9,.8ZM6.5,19.8c-.3-.4-.5-.6-.8-.6-.4,0-.8.5-1.4,1.8,0,0,0,.2,0,.3,0,.4.4.7,1.1.7h.2s10.4-.8,10.4-.8c.8,0,1.1-.5,1.1-1.1,0-.5-.4-1-.9-1,0,0-.1,0-.2,0h-.1s-9.3.8-9.3.8ZM37.6,3.3c-1.2,3.8-5,9-8.3,11.9-.4.3-.6.7-.6,1.1,0,.3.2.7.5.9.2.2.5.3.8.3.5,0,1-.3,1.4-.7,3.8-3.8,6.9-8.3,9-13.2.1-.3.2-.6.2-.9,0-.4-.2-.8-.7-.8,0,0-.1,0-.2,0-1.5,0-2.4.2-2.4.8,0,.2.1.4.2.6ZM46.4,2.8c.2-.2.3-.4.3-.6,0-.5-.6-.8-1.5-.8-.4,0-.8,0-1.1.1-.3,0-.5.4-.5.7,0,.4.1.7.3,1.1,2.3,4.4,7.2,10.3,10.2,13.1.4.4.9.7,1.5.8.4,0,.7-.2,1-.5.2-.2.4-.6.4-.9,0-.5-.3-1-.8-1.4-3.9-3.2-7.3-7.2-9.8-11.6ZM47.8,15.3c-.3,3.9-1,7.8-2.2,11.5-.2.6-.5.9-1.1.9-.7,0-1.4-.3-2.1-.6-.4-.2-.8-.3-1.2-.3-.4,0-.8.3-.9.6,0,.2-.1.4-.1.7,0,.5.3.9.8,1.2,1.2.6,2.5.9,3.8,1,1.7,0,2.5-.6,3.2-2.4,1.4-4.1,2.2-8.3,2.5-12.7,0-.1,0-.3,0-.4,0-1.4-.9-2.2-1.7-2.2-.3,0-.7.2-.9.4l-11.5,1c-.1-.3-.4-.5-.6-.5-.4,0-.9.5-1.5,1.7,0,0,0,.2,0,.3,0,.5.6.9,1.4.8l12.1-1.1ZM39.7,17.8c-.5,2.8-3.9,7.1-7.2,9.3-.7.4-.9.9-.9,1.3,0,.4.2.7.5,1,.2.2.5.4.8.4.5,0,1-.2,1.3-.6,3.8-2.8,6.7-6.7,8.2-11.2,0-.1,0-.3,0-.4,0-.6-.5-1.1-1.1-1.1,0,0,0,0,0,0-1,0-1.9.2-1.9.8,0,.2.1.5.3.6h0ZM69.1,15.8c-.1-.5-.2-1.1-.1-1.6,0-1.9.3-3.9.7-5.7.5-.2.8-.4.8-.8s-.6-1-1.8-1.3c0,0-.2,0-.3,0-.5,0-.8.5-.9,1.3-.6,2.4-.9,4.9-.9,7.3,0,.4,0,.9.1,1.3.2,1.4.7,2.1,1.6,2.1.4,0,.8-.1,1.1-.3,2.6-1.1,5.4-1.7,8.2-1.8,2.9,0,4,1.9,4,3.3,0,2.3-.9,3.5-4.2,4.8-2.3.8-4.7,1.3-7.1,1.4-.7,0-1.2.6-1.2,1.2,0,0,0,0,0,0,0,.8.3,1.3,1.3,1.2.5,0,1,0,1.5-.1,2.2-.3,4.4-.8,6.5-1.5,4.4-1.6,6-3.8,6-7.1s-2.2-5.4-6.6-5.4c-2.9,0-5.7.7-8.4,1.7h0ZM75.6,2.3c0-.9-1-1-2.2.2-.2.2-.4.4-.4.7,0,.4.4.7.9.8,1.5.5,2.8,1.2,4.1,2.1.3.3.5.5.5.6s-.1.3-.4.4c-.5.3-1,.5-1.6.8-.4.1-.7.5-.7,1,0,.5.4.9,1,.9,0,0,0,0,0,0,.2,0,.4,0,.6-.1.7-.2,1.4-.6,2.1-.9.8-.3,1.4-1.1,1.5-2-.1-.9-.6-1.7-1.4-2.1-1.3-.9-2.7-1.7-4.2-2.2v-.2ZM100,5.4c.2.9.3,1.7.2,2.6,0,1.5-.2,4.3-.4,7.1-.1,2-.2,3.8-.2,5.3s0,1.2,0,1.8c.3,4.4,3.7,5.9,7.2,5.9,3,0,5.8-1.5,7.7-3.8,1.6-2.2,2.6-4.7,3.1-7.3,0-.2,0-.4,0-.6,0-.6-.3-1.2-.9-1.4-.1,0-.3-.1-.5,0-.5,0-1,.3-1.2.8-.4,2.5-1.3,4.9-2.8,7-1.4,1.7-3.4,2.7-5.6,2.8-2.3,0-4.4-1.1-4.6-3.7,0-.6,0-1.3,0-2,0-1.5,0-3.1.2-5.1.2-2.9.4-5.8.4-7.8,0-1,0-1.9-.3-2.9-.1-.5-.6-.9-1.2-.9-.2,0-.3,0-.5,0-1.1.4-1.5.9-1.5,1.4,0,.4.3.7.6.7ZM144.8,5.6c-.4.2-.6.6-.7,1,0,.3.2.6.4.7,1.6,1.4,2.6,3.3,3.1,5.3.4,1.5.5,3,.6,4.5,0,1.1-.1,2.1-.3,3.2,0,.1,0,.2,0,.3,0,1,.8,1.3,1.5,1.3s1.1-.6,1.3-1.7c.2-.9.3-1.9.3-2.9,0-2-.3-4.1-1-6-.6-2-1.8-3.9-3.3-5.4-.4-.3-.8-.5-1.3-.5-.2,0-.3,0-.5.1h0ZM128.8,7.2c-.4,2-.6,4-.6,6.1,0,2.5.2,5,.8,7.4,1.1,4,3.1,5.9,5.8,5.9,2.7,0,5.1-2.4,6.1-5.6,0-.3.2-.6.2-.9,0-.4-.2-.8-.6-1-.2-.2-.5-.2-.7-.2-.4,0-.9.3-1.1,1-.8,2.7-2.3,4-3.8,4s-2.5-1-3.3-3.6c-.5-2.2-.8-4.5-.8-6.8,0-1.9.2-3.9.6-5.7,0-.2,0-.5,0-.7,0-.5-.2-1-.5-1.5-.3-.4-.8-.6-1.3-.6-.2,0-.4,0-.5.1-.5.1-.9.6-.9,1.1,0,.4.2.8.5,1.1ZM159.1,28.6c0,.7.4,1.1,1.1,1.1.6,0,1.1-.3,1.1-.9,0,0,0-.1,0-.2l.4-16.6v-.5c0-.5-.3-1-.8-1,0,0-.2,0-.2,0-.1,0-.3,0-.4,0,1.3-2.7,2.4-5.4,3.2-8.3,0-.2,0-.4,0-.6,0-.5-.2-.7-.7-.7h-.2c-1.4.1-1.9.5-1.9.9,0,.2.1.4.3.6-1,4.1-2.7,7.9-5.2,11.3-.2.2-.2.4-.2.6,0,.4.2.7.5.9.2.1.4.2.5.2.5,0,.9-.3,1.2-.8.6-.8,1.1-1.7,1.6-2.7l-.5,16.7ZM166.7,15.8l2.8-.2v2.1s-2.6.2-2.6.2l-.2-2.1ZM171.5,15.4h1c.5,0,1-.5,1-1,0,0,0,0,0,0,0-.4-.3-.7-.6-.8,0,0,0,0-.1,0h-.5s-.7.1-.7.1v-1.9s2.7-.2,2.7-.2l-.3,5.8-2.3.2v-2.1ZM176,22.6c.8,0,1-.5,1-1,0-.5-.3-.9-.8-.9,0,0-.1,0-.2,0h-.2s-4.3.4-4.3.4v-2s2.2-.2,2.2-.2c0,.5.3.7.7.7.7,0,1.3-.3,1.3-1l.6-7.3v-.3c0-1.2-.7-1.6-1.2-1.6-.3,0-.6.2-.8.5l-2.9.3v-2s4.8-.5,4.8-.5c.7,0,1.1-.5,1.1-1,0-.5-.3-1-.9-1,0,0-.1,0-.2,0,0,0-.6,0-.6,0l-4.2.5v-1.9c1.2-.3,2.3-.7,3.2-1.1.4-.2.6-.5.6-1,0-.3-.1-.6-.3-.8-.3-.4-.8-.6-1.3-.6-.4,0-.8.3-.8.8-2.3.9-4.7,1.5-7.1,1.9-.7.1-1,.5-.9.9,0,.7.3,1.1,1,1.1h.2c1.1-.2,2.3-.4,3.4-.6v1.6s-4.7.5-4.7.5c-.2-.3-.4-.4-.6-.4-.4,0-.7.5-1.3,1.6,0,0,0,.2,0,.2,0,.4.4.6,1,.6h.2s5.4-.6,5.4-.6v2s-1.3.1-1.3.1c-.1-.3-.3-.4-.5-.4-.3,0-.6.4-.9,1.3,0,0,0,.1,0,.2,0,.3.4.7,1,.7h.2s1.5-.1,1.5-.1v1.9s-2.9.3-2.9.3l-.2-2.7c0-.6-.3-1.1-.8-1.1,0,0-.2,0-.2,0-1,.3-1.5.8-1.5,1.2,0,.2.2.4.4.5l.6,7.2c0,.5.4,1,.9,1,0,0,.1,0,.2,0,.5,0,1-.2,1-.8l2.5-.2v2s-4,.4-4,.4c-.1-.2-.3-.3-.6-.4-.4,0-.8.5-1.2,1.5,0,0,0,.1,0,.2,0,.4.4.7,1,.7s.4,0,.4,0l4.4-.4v2.3c-1.8.2-3.6.4-5.1.5-.1-.2-.3-.3-.6-.4-.4,0-.9.5-1.2,1.9h0c0,.6.5.7,1.1.7s1.5,0,1.9-.1c3.4-.4,6.2-.8,9-1.4-.1.2-.3.4-.4.6-.2.2-.3.5-.3.8,0,.4.2.7.5.9.2.1.4.2.7.2.4,0,.8-.2,1.2-.9,3.2-5.2,5-11,5.5-17l2.1-.3c-.2,5.2-.6,10.3-1.5,15.4-.1.7-.3,1-.8,1-.4,0-.9-.1-1.3-.3-.2-.1-.5-.2-.8-.2-.4,0-.7.2-.9.5,0,.2-.1.4-.1.6,0,.5.3.9.8,1.1.8.4,1.8.6,2.7.6,1.3,0,2.5-1,2.6-2.3.8-3.6,1.1-10.5,1.4-16.8,0,0,0-.9,0-1,0-1.2-.6-1.6-1.2-1.6-.4,0-.8.3-1,.7l-2,.2c0-2.2.1-4.8.1-7.2s-.3-1.2-.9-1.2c0,0-.2,0-.3,0-1.2.3-1.7.8-1.7,1.2s.2.5.6.6v1.4c0,1.6,0,3.6-.1,5.4h-1.2c-.1-.1-.3-.3-.5-.3-.4,0-.8.5-1.2,1.6,0,.1,0,.2,0,.3,0,.5.4.7,1,.7s.2,0,.3,0l1.5-.2c-.3,4.5-1.6,8.9-3.7,12.9-1.5.3-3,.5-4.4.7v-2.2s4.4-.4,4.4-.4ZM198,18.6c-.2-.1-.5-.2-.7-.2-.4,0-.8.2-1.1.6-.5.5-.7,1.2-.7,1.9,0,.7.2,1.4.5,2.1,1.7,3.8,6.3,5.5,11.8,5.5h.9c1.1,0,1.6-.2,1.7-1,0,0,0-.2,0-.3,0-.5-.4-1.2-1.5-1.1-.4,0-.8,0-1.3,0-5.5,0-8.5-1.8-9.4-4.1-.1-.3-.2-.6-.2-.9,0-.3,0-.6.3-.9.1-.2.2-.5.2-.7,0-.3-.2-.6-.5-.8h0ZM203.3,6.7c-2.8.3-5.6.5-7.5.6-.1-.3-.4-.5-.7-.5-.5,0-1.1.5-1.4,1.7,0,0,0,.2,0,.3,0,.4.3.8.7.8,0,0,.1,0,.2,0,2.9-.1,6.4-.4,9.6-.8.5,1.4,1,2.8,1.4,4-4.5.4-9,.8-11.8,1.1-.1-.4-.4-.6-.8-.6-.5,0-1.2.5-1.5,1.9,0,0,0,.1,0,.2,0,.5.4.9.9.9,0,0,.1,0,.2,0,3.6-.3,8.8-.8,13.6-1.2.2.8.3,1.6.3,2.4,0,.4,0,.8-.2,1.2-.3.7-.8,1.2-1.5,1.5-.4.2-.7.6-.7,1,0,.2,0,.4.2.6.2.3.5.5.9.5.3,0,.6,0,1-.2,1.1-.4,2-1.2,2.6-2.3.3-.6.4-1.2.3-1.8,0-1-.2-2.1-.4-3.1,2.9-.2,5.6-.5,7.6-.7.6,0,1.1-.5,1.1-1.1,0,0,0,0,0,0h0c0-.6-.3-1.1-1.2-1.1s-1.1,0-1.5.1c-1.8.2-3.6.4-6.5.6-.4-1.2-.9-2.5-1.4-4,2.2-.2,4.1-.5,5.4-.7.8-.1,1.1-.6,1.1-1.1v-.2c-.1-.5-.3-1-1.1-.9-.2,0-.4,0-.6,0-1.3.2-3.4.5-5.7.8-.4-.9-.8-1.8-1.1-2.6.3-.1.4-.4.4-.7,0-.5-.7-1-1.8-1-.7,0-1.2.5-1.3,1.2,0,.6.2,1.1.5,1.6.3.6.6,1.2.9,1.9ZM224.4,7.2c-.2-.4-.4-.6-.7-.6-.4,0-1,.6-1.6,1.9,0,0,0,.2,0,.2,0,.4.6.8,1.2.8h.2s26.4-1.9,26.4-1.9c.6,0,1.2-.5,1.2-1.1,0,0,0,0,0-.1,0-.6-.4-1.1-1-1.1,0,0-.1,0-.2,0h-.1s-12.3.9-12.3.9c-.5-1.4-.8-2.9-1-4.3.4-.3.6-.6.6-.9,0-.5-.7-.9-2.2-1h-.2c-.6,0-1.1.5-1.1,1.3,0,.1,0,.3,0,.4.2,1.6.6,3.2,1.2,4.7l-10.5.8ZM243.4,15.7c-.5,3.5-1.4,6.9-2.8,10.1-.3.6-.7,1-1.2,1-.6,0-1.1-.3-1.6-.6-.4-.3-.8-.4-1.3-.5-.4,0-.8.2-.9.6-.1.2-.2.4-.2.6,0,.6.5,1,1,1.4,1,.7,2.3,1.1,3.5,1.2,1.4,0,2.1-.5,3-2.3,1.1-2.1,2.4-7.6,3.1-11.8,0-.2,0-.4,0-.6,0-1.3-.8-1.9-1.5-1.9-.4,0-.8.2-1.1.5l-3.9-.2c-.3-.4-.5-.6-.9-.6-.5,0-1.1.5-1.6,1.7,0,0,0,.2,0,.2,0,.4.5.9,1.3.9l4.9.2ZM234.5,10.9c-.6,3-1.7,5.8-3.3,8.3-1.5,2.5-3.5,4.8-5.7,6.8-.4.3-.6.7-.7,1.2,0,.3.1.5.3.7.3.4.7.6,1.1.5.4,0,.7-.1,1-.4,2.7-2.3,4.9-5.1,6.6-8.3,1.6-2.8,2.8-5.9,3.4-9.1,0-.2,0-.3,0-.5,0-.8-.5-1.3-1-1.3,0,0-.2,0-.2,0-1.3.3-2,.8-2,1.3,0,.2.2.4.5.6h0Z"/>
</svg>