<?xml version="1.0" encoding="UTF-8"?>
<svg id="_レイヤー_1" data-name="レイヤー_1" xmlns="http://www.w3.org/2000/svg" version="1.1" viewBox="0 0 67.9 16.5">
  <!-- Generator: Adobe Illustrator 29.1.0, SVG Export Plug-In . SVG Version: 2.1.0 Build 142)  -->
  <defs>
    <style>
      .st0 {
        fill: #3e3e3e;
      }
    </style>
  </defs>
  <path class="st0" d="M7.4,9.1v-3.7s4.4-.4,4.4-.4l-.4,3.8-4,.3ZM11.2,10.3h0c0,.4.2.7.5.7,0,0,0,0,.1,0,.3,0,.6-.2.6-.5,0,0,0,0,0,0l.8-5.9c0,0,0-.1,0-.2,0-.5-.3-.9-.7-.9,0,0,0,0,0,0-.3,0-.5.2-.6.4l-4.5.4V1.2c0-.6-.1-1-.5-1,0,0-.1,0-.2,0-.6.2-1,.5-1,.7s.1.3.3.4v2.9s-2.5.2-2.5.2c-.1-.2-.3-.3-.4-.3-.2,0-.5.3-.7.9,0,0,0,0,0,.1,0,.3.3.5.6.5h0s3-.2,3-.2v3.7s-3.8.3-3.8.3l-.5-4.8c0-.3-.3-.7-.6-.7,0,0,0,0-.1,0C.3,4.3,0,4.6,0,4.9s.1.3.4.4l.6,5.5c0,.5.3.7.7.7s.7-.1.7-.6h0c0,0,0-.2,0-.2l3.7-.3v5.4c0,.3.3.7.6.7,0,0,0,0,.1,0,.4,0,.6-.2.6-.7v-5.5s3.8-.3,3.8-.3v.2ZM27.8,5.8h1.2c.3-.1.6-.3.6-.7,0,0,0,0,0,0,0-.3-.2-.5-.6-.5s-.2,0-.3,0l-3.1.3c0,0-.1-.2-.3-.2-.2,0-.4.3-.6.8,0,0,0,0,0,0,0,.2.3.4.6.4s.1,0,.2,0h1c0,0,0,1.6,0,1.6l-3.1.3c0-.1-.2-.2-.3-.2-.2,0-.5.3-.7.9,0,0,0,0,0,0,0,.2.3.4.6.4s.2,0,.3,0l3.3-.3v3.7c0,.3,0,.5-.2.5-.2,0-.4,0-.6-.1-.1,0-.2,0-.4,0-.3,0-.5.2-.5.5,0,0,0,0,0,0,0,.3.2.5.5.6.4.2.9.2,1.3.2.8,0,1.2-.4,1.2-1.2v-4.2s3.8-.3,3.8-.3c.3,0,.6-.2.6-.5,0,0,0,0,0,0,0-.3-.2-.4-.6-.4s-.2,0-.3,0l-3.5.3v-1.7ZM27,2.1c1.5,1.6,3,3.1,4.7,4.5.2.2.4.3.7.3.2,0,.4,0,.5-.2.1-.1.2-.3.2-.4,0-.2-.1-.4-.5-.6-1.9-1.3-3.6-2.8-5.1-4.5,0-.1,0-.2,0-.3,0-.4-.2-.4-.6-.4-.6,0-1,.2-1,.4,0,.1,0,.2.2.3-1,2-2.5,3.8-4.2,5.3-.2.1-.3.3-.3.5,0,.1,0,.3.2.4.1.1.3.2.4.2.2,0,.4,0,.6-.2,1.6-1.5,3-3.1,4.1-5ZM20.8,8c0-.7-.3-1-.7-1-.3,0-.5.2-.7.4l-1.2.2c0-.1-.2-.2-.3-.2-.3,0-.7.8-.7,1,0,.3.3.5.5.4,0,0,0,0,0,0,0,0,.1,0,.2,0l1.6-.4v2c.1.9-.2,1.8-.8,2.5-.4.1-.8.3-1.2.5-.3.1-.5.4-.5.7,0,.1,0,.2,0,.3,0,.2.3.4.6.4.2,0,.3,0,.4-.1.4-.3.8-.5,1.3-.7.2,0,.4-.1.6-.1.1,0,.3,0,.4,0,1.8.6,3.6,1.1,5.5,1.5,2.2.3,4.4.5,6.6.6.5,0,.8-.2.8-.6s-.1-.7-.7-.7c-2,0-3.9-.2-5.9-.4-2-.3-4.1-.8-6-1.4-.2,0-.4,0-.6-.1.5-.7.7-1.5.7-2.4v-2.5ZM23.6,10.2c-.3.7-.6,1.4-1.1,2-.1.1-.2.3-.2.5,0,.2.1.4.3.4.1,0,.3.1.4.1.3,0,.5-.1.6-.3.6-.8,1.1-1.6,1.4-2.6,0,0,0-.2,0-.3,0-.3-.1-.5-.4-.5-.6,0-1.1,0-1.1.4,0,.1,0,.2.1.3ZM30.6,9.7c0,0,.1-.2.2-.3,0-.2-.2-.3-.7-.3s-.3,0-.5,0c-.2,0-.3.1-.3.3,0,.2,0,.4.1.5.4.9.9,1.8,1.5,2.6.1.2.4.3.7.4.2,0,.4,0,.5-.2.1,0,.2-.2.2-.4,0-.2,0-.4-.2-.5-.6-.6-1-1.3-1.4-2.1ZM19,1.9c0,0,.1-.2.1-.3,0-.2-.2-.3-.5-.3-.3,0-.5,0-.8.1-.1,0-.2.2-.2.3,0,.2.1.4.2.6.5.8,1.2,1.6,1.9,2.3.2.2.4.3.7.3.2,0,.4,0,.5-.2.1-.1.2-.3.2-.5,0-.2-.1-.4-.3-.5-.8-.5-1.4-1.1-1.8-1.9ZM47.1.7c-1.5.7-3.1,1.2-4.7,1.5-.4,0-.6.3-.6.5h0c0,.4.3.6.6.6,0,0,.2,0,.3,0,1.9-.4,3.8-1,5.7-1.8.2-.1.4-.4.4-.6,0-.2,0-.4-.3-.5-.3-.1-.6-.2-.9-.2-.3,0-.4.1-.4.3,0,0,0,.1,0,.2ZM43.2,11c-.7,1.1-1.5,2.1-2.6,2.9-.2.1-.4.4-.4.6,0,.3.3.6.6.6.2,0,.3,0,.5-.2,1.2-1.1,2.2-2.3,3-3.7,0-.1.1-.3.1-.4,0-.3-.2-.5-.5-.5,0,0,0,0,0,0-.5,0-.9.1-.9.4,0,0,0,.2,0,.2ZM48.6,3.3c-.3,1-.7,1.9-1.2,2.8,0,.1-.1.3-.1.4,0,.3.2.5.5.5,0,0,0,0,0,0,.2,0,.5-.2.6-.4.6-1.1,1.2-2.2,1.7-3.3,0,0,0-.2,0-.3,0-.3-.3-.6-.6-.6,0,0,0,0,0,0-.8,0-1.2.2-1.1.5,0,.1,0,.3.2.4ZM44.7,4.3c.3.6.6,1.2.7,1.8,0,.3.3.5.5.4.4,0,.7-.2.7-.6,0,0,0,0,0,0,0-.1,0-.3,0-.4-.2-.7-.5-1.3-.8-2-.2-.3-.4-.5-.6-.5,0,0-.2,0-.3,0-.5.4-.7.7-.7.8,0,.2.2.3.5.2ZM42,5.3c.4.6.6,1.2.8,1.8,0,.2.3.4.5.4.4,0,.7-.3.8-.7,0-.2,0-.3-.1-.4-.3-.7-.6-1.3-1-2-.1-.2-.4-.4-.6-.4-.1,0-.2,0-.3.1-.3.2-.4.5-.5.8,0,.2.1.3.4.3,0,0,0,0,.1,0ZM39.2.6c0-.4-.2-.6-.5-.6s0,0-.1,0c-.6.1-1,.4-1,.7s.1.3.3.4v3.2s-1.4.2-1.4.2c0-.2-.2-.3-.3-.3-.2,0-.5.3-.7,1,0,0,0,0,0,.1,0,.2.3.4.6.4,0,0,.1,0,.2,0l1.7-.3v3c-.6.3-1.3.5-1.7.7,0-.2-.2-.2-.3-.2-.3,0-.5.5-.6,1.3h0c0,.4.1.5.4.5.2,0,.4,0,.6-.2.4-.2,1-.5,1.6-.8v4.7c0,.2,0,.3-.2.3-.2,0-.4,0-.6-.1-.1,0-.2,0-.3,0-.3,0-.6.2-.6.5,0,0,0,0,0,0,0,.3.2.6.5.6.4.2.9.3,1.4.3.8,0,1.1-.5,1.1-1.4v-5.7c.6-.3,1.2-.7,1.6-.9.2,0,.4-.3.4-.5,0-.1,0-.2-.1-.3,0-.1-.2-.2-.4-.2-.2,0-.3,0-.4.1-.3.2-.7.4-1.1.6v-2.6s1.2-.2,1.2-.2c.3,0,.6-.3.6-.6,0,0,0,0,0,0,0-.3-.2-.5-.5-.5,0,0,0,0,0,0,0,0-.1,0-.2,0l-1,.2V.6ZM50.5,9.4c.4,0,.6-.3.6-.6,0-.3-.2-.5-.5-.6,0,0,0,0,0,0h0s-4,.4-4,.4v-.9c0-.3-.2-.6-.5-.6,0,0,0,0,0,0h0c-.3,0-.8.4-.8.7s0,.2.2.3v.7s-3.4.3-3.4.3c0-.2-.2-.3-.3-.3-.2,0-.4.3-.7.9,0,0,0,0,0,.1,0,.3.4.4.6.4l3.8-.3v5.7c0,.3.3.6.6.6,0,0,0,0,0,0,.3,0,.6-.2.6-.6,0,0,0,0,0,0v-5.8s0,0,0,0c1.1,1.8,2.4,3.5,3.9,5,.2.1.4.2.6.2.2,0,.4,0,.5-.3,0-.1.1-.3.1-.4,0-.3-.2-.6-.4-.7-1.3-1.2-2.5-2.5-3.5-3.9l2.7-.2ZM56.2,2.9c.1,1.2.2,2.5.2,3.7s0,1.6,0,2.1c0,1.9-.2,3.8-.8,5.7,0,.1,0,.3,0,.4,0,.2.2.5.4.5.1,0,.2,0,.4,0,.3,0,.6-.2.6-.5.6-2,.9-4.1.8-6.2,0-.4,0-1,0-1.9s0-2.7-.2-4.4c0-.4-.2-.7-.5-.7,0,0-.1,0-.2,0-.6.3-.9.6-.9.9,0,.1,0,.3.3.3ZM59.1,5.6c-.1-.1-.3-.2-.4-.2-.2,0-.5.2-.7.8,0,0,0,.1,0,.2,0,.2.2.4.5.4h.1s2.6-.3,2.6-.3v2.3s-2.2.2-2.2.2c-.1-.2-.3-.3-.4-.3-.2,0-.4.3-.7.9,0,0,0,.1,0,.2,0,.2.3.4.5.4h.1s2.6-.3,2.6-.3v4.5c0,.3.2.6.5.6,0,0,0,0,.1,0,.3,0,.6-.2.6-.5,0,0,0,0,0-.1v-4.6s2.9-.3,2.9-.3c.3,0,.6-.3.6-.6,0,0,0,0,0,0,0-.3-.2-.5-.5-.5,0,0,0,0,0,0h0s-2.9.3-2.9.3v-2.3s2.9-.3,2.9-.3c.3,0,.6-.2.6-.5,0,0,0,0,0,0,0-.3-.2-.5-.5-.5,0,0,0,0,0,0h0s-2.8.3-2.8.3v-2.6s4-.4,4-.4v11.6c0,.3,0,.4-.2.4-.3,0-.6-.1-.8-.2-.2,0-.3,0-.5-.1-.4,0-.6.3-.6.6,0,0,0,0,0,0,0,.3.2.5.4.6.6.3,1.1.4,1.8.4.9,0,1.4-.4,1.4-1.4V1.6c0-.4-.3-.8-.8-.9,0,0,0,0,0,0-.3,0-.5.1-.6.4l-7.4.8c-.1-.2-.3-.3-.4-.3-.2,0-.5.3-.8,1,0,0,0,0,0,.1,0,.3.3.4.7.4h0s2.6-.3,2.6-.3v2.6s-2.1.2-2.1.2Z"/>
</svg>