<?xml version="1.0" encoding="UTF-8"?>
<svg id="_レイヤー_1" data-name="レイヤー_1" xmlns="http://www.w3.org/2000/svg" version="1.1" viewBox="0 0 171.8 73.1">
  <!-- Generator: Adobe Illustrator 29.1.0, SVG Export Plug-In . SVG Version: 2.1.0 Build 142)  -->
  <defs>
    <style>
      .st0 {
        fill: #fff;
      }

      .st1 {
        fill: #fc7e00;
      }
    </style>
  </defs>
  <g id="_グループ_19005" data-name="グループ_19005">
    <polygon class="st1" points="153.5 28 153.6 .4 .1 0 0 45 54.8 45.2 54.7 72.8 171.6 73.1 171.8 28.1 153.5 28"/>
    <g>
      <path class="st0" d="M18,17.7h.1s6.7-.8,6.7-.8c.4,0,.6-.3.6-.6,0-.3-.2-.6-.5-.6,0,0,0,0,0,0h-.1s-2.6.3-2.6.3c0-.5-.2-1.2-.2-1.6.1-.1.2-.3.3-.4,0-.4-.9-.5-1.2-.5-.4,0-.5.2-.5.5,0,.1,0,.3,0,.4,0,.6.3,1.2.4,1.8l-2.4.3c-.1-.2-.2-.2-.3-.2-.2,0-.4.3-.7,1,0,0,0,0,0,.1,0,.2.3.4.6.4Z"/>
      <path class="st0" d="M28.4,17.1s0,0,0,0c.1,0,.2,0,.3,0,1.3-.4,2.6-.9,3.8-1.5.2-.1.4-.4.4-.7,0-.2-.1-.4-.3-.5-.3-.2-.7-.3-1.1-.3-.3,0-.4.1-.4.3,0,0,0,.2,0,.3-.9.6-1.9,1-2.9,1.4-.3.1-.5.3-.5.5,0,.3.2.6.5.6Z"/>
      <path class="st0" d="M34,19.7s0,0,0,0h-.1s-6.1.6-6.1.6c0-1.2,0-2.4,0-3.4,0-.4-.2-.7-.5-.7,0,0-.1,0-.2,0-.7.2-1,.5-1,.8,0,.1.1.3.3.4,0,1.1,0,2.2,0,3.4,0,1.4,0,2.8-.2,3.9-.1,1.7-.6,3.4-1.3,4.9,0,.1-.1.3-.1.4,0,.3.2.5.5.6,0,0,.2,0,.3,0,.3,0,.6-.2.7-.5.7-1.6,1.2-3.3,1.3-5,.1-1,.1-2.2.2-3.5l6.2-.5c.4,0,.7-.3.7-.6,0,0,0,0,0-.1,0-.3-.2-.6-.6-.6Z"/>
      <path class="st0" d="M25.4,21.1c.3,0,.6-.2.6-.6,0,0,0,0,0,0,0-.3-.2-.5-.5-.5,0,0,0,0,0,0h-.1s-1.7.2-1.7.2c.3-.6.5-1.1.8-1.7,0-.2.1-.4.1-.5,0-.3-.1-.5-.4-.5h-.1c-.7,0-1.2.2-1.2.5,0,.1,0,.2.2.3-.2.7-.4,1.4-.7,2.1l-1.7.2c0-.1.1-.2.1-.4,0-.1,0-.3,0-.4-.1-.5-.3-1-.6-1.5-.1-.2-.3-.4-.6-.4-.1,0-.3,0-.4.1-.4.3-.5.5-.5.7,0,.2.2.3.5.3.2.4.3.9.4,1.3,0,.1,0,.2.1.3l-1.9.2c-.1-.2-.2-.3-.3-.3-.2,0-.4.3-.7,1,0,0,0,0,0,.1,0,.3.3.4.7.4l8.1-.8Z"/>
      <path class="st0" d="M77.9,23.2h.2s15.1-.8,15.1-.8c.4,0,.7-.4.7-.8,0,0,0,0,0,0,0-.4-.2-.7-.6-.7,0,0,0,0,0,0l-14.7.8c-.1-.2-.3-.3-.5-.3-.4,0-.8.3-1.1,1.1,0,0,0,.2,0,.3,0,.3.5.5,1.1.5Z"/>
      <path class="st0" d="M25,27.5c0-.3-.2-.5-.4-.6-.8-.4-1.6-.9-2.3-1.4v-.8s2.4-.2,2.4-.2c.3,0,.6-.3.6-.6,0,0,0,0,0,0,0-.3-.2-.6-.5-.6,0,0,0,0,0,0h-.1s-2.2.2-2.2.2v-.9c0-.4-.2-.7-.5-.7,0,0-.1,0-.2,0-.7.2-1,.4-1,.7,0,.2,0,.3.3.4v.7s-2.5.3-2.5.3c0-.2-.2-.3-.4-.3-.3,0-.6.3-.9,1,0,0,0,.1,0,.2,0,.3.4.5.7.4l3.1-.3v1c0-.1-.1-.2-.3-.2-.2,0-.4,0-.5,0-.4,0-.7.1-.7.4,0,.1,0,.2.1.3-.6,1-1.3,1.8-2.2,2.5-.2.1-.4.4-.4.7,0,.2,0,.3.2.5.1.1.3.2.5.2.3,0,.5-.1.7-.3,1-.9,1.8-2,2.5-3.2,0-.1.1-.2.1-.4v4.2c0,.3.2.7.5.7,0,0,0,0,.1,0,.3,0,.6-.2.7-.5,0,0,0-.1,0-.2v-3.4c.5.4,1,.9,1.4,1.1.2.1.4.2.6.2.2,0,.3,0,.4-.2.1-.1.2-.3.2-.5Z"/>
      <path class="st0" d="M31.3,21.7c0,0-.1,0-.2,0-.7.2-1.1.5-1.1.7,0,.1.1.3.4.4v7.8c0,.5.3.7.7.7.4,0,.7-.2.7-.7v-8.2c0-.5-.2-.7-.5-.7Z"/>
      <path class="st0" d="M98.8,25.5c-.2.1-.4.4-.4.7,0,.2,0,.4.2.5.1.1.3.2.5.3.3,0,.5-.2.7-.4,1-1,1.9-2.1,2.6-3.4.1-.2.2-.4.2-.6,0-.3-.1-.5-.4-.5,0,0,0,0,0,0-.1,0-.3,0-.4,0-.7,0-1,.2-1,.4,0,.1,0,.2.1.3-.5,1-1.2,1.9-2.1,2.7Z"/>
      <path class="st0" d="M139.4,31.3c.1.2.4.3.6.4.2,0,.3,0,.5-.2.2-.1.3-.3.3-.6,0-.2-.1-.4-.2-.6-.7-.9-1.4-1.8-2.3-2.6,0,0,0-.2.1-.3,0-.2-.2-.4-.5-.4-.3,0-.6.1-.9.3-.2,0-.3.2-.3.4,0,.2.1.4.3.6.9.9,1.7,2,2.4,3Z"/>
      <path class="st0" d="M107.5,17.8h0s3.3-.3,3.3-.3c.3,0,.6-.2.6-.6,0,0,0,0,0-.1,0-.3-.2-.6-.7-.6h-.1s-2.6.2-2.6.2c0-.2-.2-.3-.4-.3-.3,0-.6.3-.8.9,0,0,0,0,0,0,0,.3.3.5.6.5Z"/>
      <path class="st0" d="M110,21.7c-.2,0-.5,0-.7,0-.3,0-.4.2-.4.4,0,.2.1.5.2.7.9,1.4,1.9,2.6,3.1,3.7.2.2.5.3.8.3.2,0,.4,0,.5-.3.1-.1.2-.3.2-.5,0-.3-.2-.6-.5-.8-1-.8-1.9-1.7-2.6-2.7,0-.1.1-.3.1-.4,0-.2-.2-.4-.7-.4Z"/>
      <path class="st0" d="M97.5,22h.1s7.4-.5,7.4-.5v3c0,.2,0,.3-.3.3-.3,0-.5,0-.8-.1,0,0-.2,0-.3,0-.3,0-.6.2-.7.5,0,0,0,.1,0,.2,0,.3.2.5.6.6.5.2,1.1.3,1.7.3,1.1,0,1.3-.4,1.3-1.3v-3.6s7.1-.5,7.1-.5c.3,0,.6-.2.6-.6,0,0,0,0,0,0,0-.3-.2-.6-.5-.6,0,0,0,0,0,0h0s-7.1.5-7.1.5v-5.7c0-.5-.2-.8-.6-.8,0,0-.1,0-.2,0-.7.2-1.1.4-1.1.7,0,.2.1.3.4.4v5.4s-2.7.2-2.7.2v-3.4c-.1-.6-.4-.9-.7-.9,0,0-.1,0-.2,0-.7.2-1.1.5-1.1.8,0,.1.1.3.4.4l.2,3.2-2.7.2c-.1-.2-.3-.4-.4-.4-.3,0-.5.3-.8,1.1,0,0,0,0,0,.1,0,.3.3.4.7.4Z"/>
      <path class="st0" d="M109.5,24.5c-.3-.1-.6-.2-1-.2-.3,0-.4.1-.4.3,0,.1,0,.3,0,.4-.8,1.5-5.2,4.1-8.2,5-.5.1-.7.4-.7.7,0,0,0,.1,0,.2,0,.3.4.6.7.6.2,0,.4,0,.6-.1,3.5-1.1,6.7-3.1,9.2-5.8,0-.1.2-.3.2-.4,0-.2-.2-.5-.5-.6Z"/>
      <path class="st0" d="M51.3,22.2c0,0-.2,0-.3,0-.3,0-.6.2-.7.5-.2,1.5-.8,2.9-1.7,4.1-.8,1-2,1.6-3.3,1.7-1.3.2-2.5-.8-2.7-2.1,0,0,0-.1,0-.2,0-.4,0-.8,0-1.2,0-.9,0-1.8.1-3,.1-1.7.3-3.4.3-4.6,0-.6,0-1.1-.2-1.7,0-.3-.3-.6-.7-.6-.1,0-.2,0-.3,0-.6.2-.9.5-.9.8,0,.2.2.4.4.4,0,.5.1,1,.1,1.5,0,.9-.1,2.5-.3,4.2,0,1.2-.1,2.2-.1,3.1,0,.4,0,.7,0,1,.2,2.6,2.2,3.5,4.2,3.5,1.8,0,3.4-.8,4.5-2.2.9-1.3,1.6-2.7,1.9-4.3,0-.1,0-.2,0-.3,0-.4-.2-.7-.5-.8Z"/>
      <path class="st0" d="M131.8,17.1h0c0,0-.2,0-.2,0-2.1.4-4.3.7-6.5.8.5-.8.8-1.5,1-2,.1-.2.2-.5.2-.7,0-.4-.3-.6-.7-.6-.7,0-1.1.3-1.1.6,0,.2.1.3.2.4-.3.8-.7,1.6-1.1,2.4-.4,0-.8,0-1.1,0-.9,0-1.8,0-2.7-.2,0-.3-.2-.4-.4-.4-.3,0-.6.3-.9.9,0,0,0,.1,0,.2,0,.2.3.4.6.4,1.1.2,2.3.3,3.4.3h.5c-.4.6-.8,1.2-1.2,1.7-.2.2-.2.4-.3.7,0,.2,0,.4.2.5.2.3.6.4,1.2.4.8,0,1.6.2,2.2.7-1.2.6-2.2,1.3-3.2,2.2-.6.5-.9,1.2-.9,2,0,1.1,1,1.9,2.8,2.2.9.1,1.8.2,2.7.2.9,0,1.7,0,2.6-.1.6,0,1.2-.2,1.7-.6.1-.1.2-.3.2-.5,0-.2-.1-.4-.3-.6-.1-.1-.3-.2-.4-.2-.2,0-.3,0-.5.2-.3.2-.7.3-1.1.3-.8.1-1.6.2-2.4.2-.8,0-1.6,0-2.3-.2-1-.2-1.5-.7-1.5-1.2,0-.3.1-.5.3-.7.9-.9,1.9-1.6,3-2.2.2.4.3.9.4,1.3,0,.4.3.6.6.6s0,0,0,0c.3,0,.6-.2.7-.6,0,0,0,0,0,0h0c0-.7-.2-1.3-.5-1.9,1.3-.5,2.7-1,4-1.3.3,0,.5-.3.6-.6,0-.1,0-.2-.1-.3-.3-.4-.6-.6-1.1-.7-.2,0-.5.2-.5.4,0,0,0,0,0,0,0,0,0,0,0,.1-1.3.4-2.5.9-3.7,1.5-.9-.8-2-1.2-3.2-1.3.4-.6.9-1.4,1.4-2.2,2.5-.1,5-.4,7.4-.9.5,0,.7-.3.7-.6h0c0-.4-.3-.7-.6-.6Z"/>
      <path class="st0" d="M69.7,17.1c-.2-.2-.5-.3-.8-.3,0,0-.2,0-.3,0-.2.1-.4.3-.4.6,0,.2,0,.3.2.4.9.8,1.5,1.9,1.8,3.1.2.9.3,1.8.3,2.7,0,.6,0,1.2-.2,1.9,0,0,0,.1,0,.2,0,.6.5.7.9.7.4,0,.6-.4.8-1,.1-.6.2-1.1.2-1.7,0-1.2-.2-2.4-.6-3.5-.4-1.2-1-2.3-2-3.2Z"/>
      <path class="st0" d="M66.1,24.8c-.1,0-.3-.1-.4-.1-.3,0-.5.2-.7.6-.5,1.6-1.4,2.3-2.2,2.3-1,0-1.5-.6-1.9-2.1-.3-1.3-.5-2.7-.4-4,0-1.1.1-2.3.3-3.4,0-.1,0-.3,0-.4,0-.3,0-.6-.3-.9-.2-.2-.5-.4-.7-.4-.1,0-.2,0-.3,0-.3,0-.5.3-.5.6,0,.2.1.5.3.6-.3,1.2-.4,2.4-.4,3.6,0,1.5.1,2.9.4,4.4.6,2.4,1.8,3.5,3.4,3.5,1.6,0,3-1.4,3.6-3.3,0-.2,0-.4.1-.5,0-.2-.1-.5-.3-.6Z"/>
      <path class="st0" d="M140,51.2c-1.7,0-3.4.4-5,1,0-.3,0-.6,0-1,0-1.1.2-2.3.4-3.4.3,0,.5-.3.5-.5,0-.3-.3-.6-1.1-.8,0,0-.1,0-.2,0-.3,0-.5.3-.6.7-.3,1.4-.5,2.9-.6,4.3,0,.3,0,.5,0,.8.1.8.4,1.2.9,1.2.2,0,.5,0,.7-.2,1.5-.7,3.2-1,4.8-1,1.1-.1,2.2.7,2.3,1.8,0,0,0,.1,0,.2,0,1.4-.6,2.1-2.5,2.8-1.3.5-2.8.7-4.2.8-.4,0-.7.3-.7.7h0c0,.5.2.7.8.7.3,0,.6,0,.9,0,1.3-.1,2.6-.4,3.8-.8,2.6-.9,3.5-2.2,3.5-4.2,0-1.5-1.3-3.2-3.9-3.2Z"/>
      <path class="st0" d="M139,44.2c0-.5-.6-.6-1.3,0-.1,0-.2.2-.2.4,0,.2.2.4.5.5.9.3,1.7.7,2.4,1.2.2.2.3.3.3.4,0,.1,0,.2-.2.3-.3.2-.6.3-.9.4-.3,0-.4.3-.4.6,0,.3.3.5.6.5,0,0,0,0,0,0,.1,0,.3,0,.4,0,.4-.1.8-.3,1.2-.5.5-.2.8-.6.9-1.2,0-.5-.4-1-.8-1.3-.7-.6-1.6-1-2.4-1.3h0Z"/>
      <path class="st0" d="M158.5,57.3c-.8,0-1.4.6-1.4,1.4,0,.8.6,1.4,1.4,1.4.8,0,1.4-.6,1.4-1.4,0-.8-.6-1.4-1.4-1.4Z"/>
      <path class="st0" d="M157.7,45.3l.3,9.5c0,.3.2.6.5.6,0,0,0,0,0,0,.3,0,.6-.2.6-.5,0,0,0,0,0,0l.4-9.8v-.2c0-.6-.1-1.1-.7-1.1-.1,0-.3,0-.4,0-.9.2-1.3.6-1.3.9,0,.2.2.4.5.5Z"/>
      <path class="st0" d="M101.1,45.5c-.7-.1-1.4-.2-2.1-.2-1.5,0-3,.1-4.5.4-.1-.1-.3-.2-.5-.2-.4,0-.7.4-.9,1.2h0c0,.4.3.6.6.6,0,0,.1,0,.2,0,1.5-.4,3.1-.7,4.6-.6.8,0,1.5,0,2.2.2.8.2,1.1.5,1.1.9,0,.2-.1.5-.3.7-.3.4-.8.8-1.2,1.2-.2.1-.3.4-.4.6,0,.4.3.6.7.6.2,0,.4,0,.6-.2.6-.4,1.1-.9,1.5-1.4.4-.4.6-1,.6-1.5,0-1-.8-1.8-2.3-2.1Z"/>
      <path class="st0" d="M126.2,53.6c-.5-2.4-1.4-4.7-2.7-6.8,0-.1.1-.2.1-.4,0-.3-.3-.5-.8-.5-.1,0-.3,0-.4,0-.2,0-.6.3-.6.6,0,.1,0,.2.1.3,1.4,2.1,2.4,4.5,2.9,7,0,.6.4.8.8.8.4,0,.7-.3.7-.7,0,0,0,0,0-.1,0-.1,0-.2,0-.3Z"/>
      <path class="st0" d="M82.6,56.3s0,0,0,0c-.2,0-.4,0-.6.1-.9.3-1.9.5-2.9.5-.8,0-1.6,0-2.4-.3-1.4-.5-2-1.3-2-2.5v-.2c0-.6-.3-.8-.8-.8-.3,0-.7.2-.7.9,0,1.7,1,3.1,2.5,3.7,1.1.4,2.3.6,3.5.6,1.2,0,2.4-.2,3.5-.6.3,0,.6-.4.6-.7,0-.4-.3-.8-.7-.8Z"/>
      <path class="st0" d="M81.1,45.4c-.7-.1-1.4-.2-2.1-.2-1.5,0-3,.1-4.5.4-.1-.1-.3-.2-.5-.2-.4,0-.7.4-.9,1.2h0c0,.4.3.6.6.6,0,0,.1,0,.2,0,1.5-.4,3.1-.7,4.6-.6.8,0,1.5,0,2.2.2.8.2,1.1.5,1.1.9,0,.2-.1.5-.3.7-.3.4-.8.8-1.2,1.2-.2.1-.3.4-.4.6,0,.4.3.6.7.6.2,0,.4,0,.6-.2.6-.4,1.1-.9,1.5-1.4.4-.4.6-1,.6-1.5,0-1-.8-1.8-2.3-2.1Z"/>
      <path class="st0" d="M117.9,48s0,0,0,0c-.3,0-.8,0-1.2,0,.2-.8.3-1.7.3-2.6,0-.2,0-.4,0-.6,0-.4-.3-.7-.6-.7h-.1c-.8.1-1.2.5-1.2.8,0,.2.1.3.3.4,0,.2,0,.5,0,.7,0,.8,0,1.5-.2,2.2-1.1.2-2.2.4-2.9.6,0-.2-.2-.3-.4-.3-.3,0-.7.4-.8,1,0,0,0,.1,0,.2,0,.3.2.5.4.5,0,0,0,0,.1,0,.1,0,.2,0,.3,0,.8-.2,1.9-.4,3-.6-.7,2.7-1.9,5.2-3.6,7.4-.2.2-.4.5-.4.8,0,.4.3.7.7.8.3,0,.5-.1.6-.3,2-2.6,3.4-5.7,4.2-8.9.5,0,.9-.1,1.4-.1.9,0,1.4.3,1.5,1.2,0,.4,0,.8,0,1.2,0,1.7-.2,3.3-.7,4.9-.3.7-.6,1-.9,1-.2,0-.4,0-.5-.1-.3-.2-.6-.4-.8-.6-.1-.2-.4-.3-.6-.3-.4,0-.7.3-.7.7,0,.2.1.5.3.6.4.4.8.7,1.3,1,.4.2.8.3,1.2.3.8,0,1.6-.5,2.2-2,.5-1.7.8-3.5.8-5.3,0-.5,0-1,0-1.6-.1-1.3-1.3-2.3-2.6-2.2Z"/>
      <path class="st0" d="M102.6,56.3s0,0,0,0c-.2,0-.4,0-.6.1-.9.3-1.9.5-2.9.5-.8,0-1.6,0-2.4-.3-1.4-.5-2-1.3-2-2.5v-.2c0-.6-.3-.8-.8-.8-.3,0-.7.2-.7.9,0,1.7,1,3.1,2.5,3.7,1.1.4,2.3.6,3.5.6,1.2,0,2.4-.2,3.5-.6.3,0,.6-.4.6-.7,0-.4-.3-.8-.7-.8Z"/>
    </g>
  </g>
</svg>