<?xml version="1.0" encoding="UTF-8"?>
<svg id="_レイヤー_1" data-name="レイヤー_1" xmlns="http://www.w3.org/2000/svg" version="1.1" viewBox="0 0 30.7 29">
  <!-- Generator: Adobe Illustrator 29.1.0, SVG Export Plug-In . SVG Version: 2.1.0 Build 142)  -->
  <defs>
    <style>
      .st0 {
        fill: #5fad47;
      }
    </style>
  </defs>
  <path id="_パス_45963" data-name="パス_45963" class="st0" d="M15.3.5c-6.1,0-11,4.9-11,11,0,3.6,1.8,7,4.7,9,2.6,1.8,3.2,2.3,4.1,4,.7,1.4,1.9,3.8,1.9,3.8,0,.2.3.2.4.1,0,0,.1,0,.1-.1,0,0,1.2-2.4,1.9-3.8.9-1.7,1.5-2.2,4.1-4,5-3.5,6.2-10.3,2.8-15.3C22.3,2.3,19,.5,15.3.5ZM15.3,18.8c-4.1,0-7.4-3.3-7.4-7.4s3.3-7.4,7.4-7.4,7.4,3.3,7.4,7.4h0c0,4.1-3.3,7.4-7.4,7.4Z"/>
</svg>