<?xml version="1.0" encoding="UTF-8"?>
<svg id="_レイヤー_1" data-name="レイヤー_1" xmlns="http://www.w3.org/2000/svg" version="1.1" viewBox="0 0 30.7 29">
  <!-- Generator: Adobe Illustrator 29.1.0, SVG Export Plug-In . SVG Version: 2.1.0 Build 142)  -->
  <defs>
    <style>
      .st0 {
        fill: #5fad47;
      }
    </style>
  </defs>
  <path id="_パス_45964" data-name="パス_45964" class="st0" d="M30.6,5.9c-.1-.7-.4-1.3-.9-1.9,0-.1-.2-.2-.3-.3-.8-.8-1.9-1.2-3-1.2H4.3c-1.1,0-2.2.4-3,1.2-.1.1-.2.2-.3.3-.4.5-.7,1.2-.9,1.9C0,6.2,0,6.4,0,6.7v15.6c0,.6.1,1.2.4,1.7.2.5.5.9.9,1.3.1.1.2.2.3.3.8.6,1.7,1,2.7,1h22.2c1,0,2-.3,2.7-1,.1,0,.2-.2.3-.3.4-.4.7-.8.9-1.3h0c.2-.5.3-1.1.3-1.7V6.7c0-.3,0-.6,0-.8ZM2.8,5.2c.4-.4.9-.6,1.5-.6h22.2c.7,0,1.3.3,1.7.8l-11.6,10.1c-.6.6-1.6.6-2.2,0L2.6,5.5c0,0,.1-.1.2-.2ZM2.2,22.3V7.7l8.4,7.3-8.4,7.3s0,0,0,0ZM26.4,24.4H4.3c-.4,0-.7,0-1-.3l8.9-7.7.8.7c1.4,1.2,3.5,1.2,4.8,0l.8-.7,8.9,7.7c-.3.2-.7.3-1,.3ZM28.5,22.3s0,0,0,0l-8.4-7.3,8.4-7.3v14.6Z"/>
</svg>