<?xml version="1.0" encoding="UTF-8"?>
<svg id="_レイヤー_1" data-name="レイヤー_1" xmlns="http://www.w3.org/2000/svg" version="1.1" viewBox="0 0 30.7 29">
  <!-- Generator: Adobe Illustrator 29.1.0, SVG Export Plug-In . SVG Version: 2.1.0 Build 142)  -->
  <defs>
    <style>
      .st0 {
        fill: #5fad47;
      }
    </style>
  </defs>
  <path id="_パス_45965" data-name="パス_45965" class="st0" d="M18.8,19.8c-.3-.3-.9-.4-1.3,0l-1.8,1.4c-.3.3-.8.3-1.2,0-2.3-1.6-4.2-3.6-5.8-5.8-.3-.3-.3-.8,0-1.2l1.4-1.8c.3-.4.3-.9,0-1.3l-3.4-3.4c-.3-.3-.9-.4-1.3,0l-4.2,3.6c-.3.3-.4.8-.2,1.2,0,0,.6,1.2,1.1,2.1,1.7,2.7,3.7,5.2,5.9,7.4,2.2,2.2,4.7,4.2,7.4,5.9.9.5,2.1,1.1,2.1,1.1.4.2.9.1,1.2-.2l3.6-4.2c.3-.4.3-.9,0-1.3l-3.4-3.4Z"/>
  <path id="_パス_45966" data-name="パス_45966" class="st0" d="M19.6,15.3l1.4-.2c-.5-3.2-3-5.7-6.2-6.2l-.2,1.4c2.6.4,4.6,2.4,5,5h0Z"/>
  <path id="_パス_45967" data-name="パス_45967" class="st0" d="M25.2,4.6C22.8,2.1,19.6.5,16.2,0l-.2,1.4c6.4,1,11.4,6,12.5,12.5l1.4-.2c-.5-3.4-2.1-6.6-4.6-9Z"/>
  <path id="_パス_45968" data-name="パス_45968" class="st0" d="M15.5,4.4l-.2,1.4c4.5.7,8,4.2,8.7,8.7l1.4-.2c-.8-5.1-4.8-9.1-9.9-9.9h0Z"/>
</svg>